<svg width="30" height="30" fill="none" xmlns="http://www.w3.org/2000/svg"><path opacity=".982" fill-rule="evenodd" clip-rule="evenodd" d="M14.934 30h-.82a2.487 2.487 0 0 1-.645-.322L2.365 18.574c-.38-.621-.42-1.266-.117-1.933a21.67 21.67 0 0 1 1.319-1.377c.69-.485 1.394-.504 2.109-.059l6.416 6.416.059-20.039C12.237.783 12.657.256 13.41 0h2.285c.74.263 1.14.79 1.2 1.582l.06 19.98 6.24-6.24c.747-.559 1.509-.579 2.285-.058.46.44.9.9 1.318 1.377.303.667.264 1.312-.117 1.933L15.578 29.678a2.506 2.506 0 0 1-.644.322Z" fill="#fff"/></svg>