<svg width="40" height="40" fill="none" xmlns="http://www.w3.org/2000/svg"><path d="M15 24.375a1.875 1.875 0 1 0 0-3.75 1.875 1.875 0 0 0 0 3.75Zm10 0a1.875 1.875 0 1 0 0-3.75 1.875 1.875 0 0 0 0 3.75Z" fill="#F87E1B"/><path fill-rule="evenodd" clip-rule="evenodd" d="M28.076 13.454a26.4 26.4 0 0 0-8.07-1.204h-.013a26.4 26.4 0 0 0-8.07 1.204 1 1 0 0 1-.596-1.91A28.398 28.398 0 0 1 20 10.25c2.94-.02 5.866.417 8.673 1.295a1 1 0 1 1-.597 1.909ZM10.67 27.2a1 1 0 0 1 1.253-.656 26.4 26.4 0 0 0 8.07 1.205h.013a26.4 26.4 0 0 0 8.069-1.204.999.999 0 0 1 1.204 1.421 1.002 1.002 0 0 1-.607.487A28.402 28.402 0 0 1 20 29.75a28.398 28.398 0 0 1-8.673-1.296 1 1 0 0 1-.656-1.253Z" fill="#F87E1B"/><path fill-rule="evenodd" clip-rule="evenodd" d="M26.988 5.986c1.642.354 3.249.851 4.802 1.487h.002a2.25 2.25 0 0 1 1.3 1.436l5.31 17.7a2.259 2.259 0 0 1-.692 2.35c-2.549 2.215-6.006 3.911-9.963 4.88h-.005a2.245 2.245 0 0 1-2.532-1.184v-.002l-1.879-3.755a.999.999 0 0 1 .825-1.445 1 1 0 0 1 .965.551l1.88 3.76a.245.245 0 0 0 .274.13c3.71-.907 6.86-2.478 9.125-4.446l.004-.004a.26.26 0 0 0 .08-.268L31.176 9.483a.25.25 0 0 0-.145-.16 26.5 26.5 0 0 0-4.465-1.383h-.004a.253.253 0 0 0-.294.166l-1.245 3.736a1 1 0 0 1-1.897-.632l1.246-3.739a2.253 2.253 0 0 1 2.616-1.485Zm-13.37 1.982a.25.25 0 0 0-.18-.027h-.004a26.5 26.5 0 0 0-4.466 1.383l-.38-.926.382.925a.25.25 0 0 0-.146.161L3.517 27.175v.001a.26.26 0 0 0 .08.268l.003.004c2.265 1.97 5.418 3.54 9.128 4.447l-.237.971.232-.972a.245.245 0 0 0 .277-.13l.001-.002 1.88-3.758a1.002 1.002 0 0 1 1.669-.23 1 1 0 0 1 .12 1.124l-1.879 3.755v.002a2.244 2.244 0 0 1-2.533 1.184h-.005c-3.957-.969-7.414-2.665-9.964-4.88a2.26 2.26 0 0 1-.69-2.35v-.005L6.91 8.91a2.26 2.26 0 0 1 1.3-1.435h.001a28.502 28.502 0 0 1 4.802-1.488 2.253 2.253 0 0 1 2.616 1.486l1.247 3.74a1 1 0 0 1-1.898.631l-1.245-3.736a.25.25 0 0 0-.115-.14" fill="#F87E1B"/><path d="M15 24.375a1.875 1.875 0 1 0 0-3.75 1.875 1.875 0 0 0 0 3.75Zm10 0a1.875 1.875 0 1 0 0-3.75 1.875 1.875 0 0 0 0 3.75Z" fill="#F87E1B"/><path fill-rule="evenodd" clip-rule="evenodd" d="M28.076 13.454a26.4 26.4 0 0 0-8.07-1.204h-.013a26.4 26.4 0 0 0-8.07 1.204 1 1 0 0 1-.596-1.91A28.398 28.398 0 0 1 20 10.25c2.94-.02 5.866.417 8.673 1.295a1 1 0 1 1-.597 1.909ZM10.67 27.2a1 1 0 0 1 1.253-.656 26.4 26.4 0 0 0 8.07 1.205h.013a26.4 26.4 0 0 0 8.069-1.204.999.999 0 0 1 1.204 1.421 1.002 1.002 0 0 1-.607.487A28.402 28.402 0 0 1 20 29.75a28.398 28.398 0 0 1-8.673-1.296 1 1 0 0 1-.656-1.253Z" fill="#F87E1B"/><path fill-rule="evenodd" clip-rule="evenodd" d="M26.988 5.986c1.642.354 3.249.851 4.802 1.487h.002a2.25 2.25 0 0 1 1.3 1.436l5.31 17.7a2.259 2.259 0 0 1-.692 2.35c-2.549 2.215-6.006 3.911-9.963 4.88h-.005a2.245 2.245 0 0 1-2.532-1.184v-.002l-1.879-3.755a.999.999 0 0 1 .825-1.445 1 1 0 0 1 .965.551l1.88 3.76a.245.245 0 0 0 .274.13c3.71-.907 6.86-2.478 9.125-4.446l.004-.004a.26.26 0 0 0 .08-.268L31.176 9.483a.25.25 0 0 0-.145-.16 26.5 26.5 0 0 0-4.465-1.383h-.004a.253.253 0 0 0-.294.166l-1.245 3.736a1 1 0 0 1-1.897-.632l1.246-3.739a2.253 2.253 0 0 1 2.616-1.485Zm-13.37 1.982a.25.25 0 0 0-.18-.027h-.004a26.5 26.5 0 0 0-4.466 1.383l-.38-.926.382.925a.25.25 0 0 0-.146.161L3.517 27.175v.001a.26.26 0 0 0 .08.268l.003.004c2.265 1.97 5.418 3.54 9.128 4.447l-.237.971.232-.972a.245.245 0 0 0 .277-.13l.001-.002 1.88-3.758a1.002 1.002 0 0 1 1.669-.23 1 1 0 0 1 .12 1.124l-1.879 3.755v.002a2.244 2.244 0 0 1-2.533 1.184h-.005c-3.957-.969-7.414-2.665-9.964-4.88a2.26 2.26 0 0 1-.69-2.35v-.005L6.91 8.91a2.26 2.26 0 0 1 1.3-1.435h.001a28.502 28.502 0 0 1 4.802-1.488 2.253 2.253 0 0 1 2.616 1.486l1.247 3.74a1 1 0 0 1-1.898.631l-1.245-3.736a.25.25 0 0 0-.115-.14" fill="#F87E1B"/></svg>