<svg width="30" height="30" fill="none" xmlns="http://www.w3.org/2000/svg"><path fill-rule="evenodd" clip-rule="evenodd" d="M15 4.75C9.34 4.75 4.75 9.34 4.75 15S9.34 25.25 15 25.25 25.25 20.66 25.25 15 20.66 4.75 15 4.75ZM2.75 15C2.75 8.235 8.235 2.75 15 2.75S27.25 8.235 27.25 15 21.765 27.25 15 27.25 2.75 21.765 2.75 15Z" fill="#D8D8D8"/><path fill-rule="evenodd" clip-rule="evenodd" d="M9.313 18.75a1 1 0 0 1 1-1h9.374a1 1 0 1 1 0 2h-9.375a1 1 0 0 1-1-1Z" fill="#D8D8D8"/><path d="M10.781 14.063a1.406 1.406 0 1 0 0-2.813 1.406 1.406 0 0 0 0 2.813Zm8.438 0a1.406 1.406 0 1 0 0-2.813 1.406 1.406 0 0 0 0 2.813Z" fill="#D8D8D8"/></svg>