<svg width="30" height="30" fill="none" xmlns="http://www.w3.org/2000/svg"><path d="M14.824 2c2.329.065 3.999 1.14 5.01 3.223.84 2.428.304 4.488-1.611 6.181-1.9 1.305-3.872 1.422-5.918.352C10.162 10.27 9.39 8.25 9.99 5.69c.845-2.24 2.456-3.47 4.834-3.69ZM5.508 6.863c2.378.021 3.794 1.193 4.248 3.516.07 2.018-.828 3.405-2.695 4.16-1.926.485-3.449-.081-4.57-1.7-.96-1.935-.656-3.644.907-5.126a4.31 4.31 0 0 1 2.11-.85Zm18.282 0c2.355.003 3.77 1.155 4.247 3.457.13 1.94-.681 3.317-2.431 4.131-2.069.64-3.7.064-4.893-1.728-.767-1.573-.63-3.057.41-4.453a4.364 4.364 0 0 1 2.666-1.407Zm-11.661 6.621c1.914-.01 3.828 0 5.742.03 1.85.17 3.139 1.107 3.867 2.812.148.427.236.867.264 1.319.039 3.027.039 6.054 0 9.082-.068.459-.332.722-.791.79-4.14.04-8.281.04-12.422 0-.459-.068-.723-.331-.79-.79-.04-3.028-.04-6.055 0-9.082.155-1.816 1.063-3.095 2.724-3.838a7.05 7.05 0 0 1 1.406-.323ZM0 25.438v-6.036c.452-2.024 1.702-3.225 3.75-3.603a24.456 24.456 0 0 1 2.93.03 6.746 6.746 0 0 0-.323 1.347 419.03 419.03 0 0 0 0 9.902c.049.154.078.31.088.469a62.026 62.026 0 0 1-4.453-.088C.94 27.159.276 26.485 0 25.438Zm30-6.036v6.035c-.276 1.048-.94 1.721-1.992 2.022a62.026 62.026 0 0 1-4.453.088c.01-.16.04-.316.088-.469.039-3.3.039-6.601 0-9.902a6.77 6.77 0 0 0-.323-1.348 24.456 24.456 0 0 1 2.93-.03c2.048.379 3.298 1.58 3.75 3.604Z" opacity=".985" fill-rule="evenodd" clip-rule="evenodd" fill="#fff"/></svg>