<svg width="30" height="30" fill="none" xmlns="http://www.w3.org/2000/svg"><g opacity=".968" fill-rule="evenodd" clip-rule="evenodd" fill="#fff" clip-path="url(#a)"><path d="M29.97 5.128v1.816a3.523 3.523 0 0 1-1.698 1.904 11.463 11.463 0 0 1-3.985 1.348c-2.97.48-5.88.245-8.73-.703a8.28 8.28 0 0 1-1.992-1.114c-.972-.827-1.314-1.872-1.026-3.134.12-.544.384-1.003.791-1.377a8.412 8.412 0 0 1 3.223-1.64c3.402-.885 6.781-.807 10.136.233a6.658 6.658 0 0 1 2.784 1.729c.214.292.38.604.498.938Zm-30 8.496v-1.817a3.823 3.823 0 0 1 1.407-1.728 12.674 12.674 0 0 1 5.684-1.7 18.658 18.658 0 0 1 4.101.088v8.496c-2.91.407-5.741.105-8.496-.908A6.651 6.651 0 0 1 .527 14.62a3.144 3.144 0 0 1-.556-.996Z"/><path d="M29.97 9.522v1.816a3.748 3.748 0 0 1-1.757 1.963 13.937 13.937 0 0 1-5.977 1.524 17.296 17.296 0 0 1-6.562-.88 6.398 6.398 0 0 1-2.725-1.786 2.438 2.438 0 0 1-.44-1.7 2.742 2.742 0 0 1 .206-1.289 5.43 5.43 0 0 0 2.9 2.198c3.446 1.159 6.923 1.257 10.43.293a7.509 7.509 0 0 0 3.31-1.846l.44-.645c.06.123.118.24.176.352Z"/><path d="M29.97 13.975v1.758a3.979 3.979 0 0 1-1.816 2.021 12.92 12.92 0 0 1-4.922 1.407c-2.712.3-5.348-.013-7.91-.938a5.352 5.352 0 0 1-2.49-1.845 2.433 2.433 0 0 1-.322-1.524 2.75 2.75 0 0 1 .205-1.289 3.77 3.77 0 0 0 1.435 1.494 12.787 12.787 0 0 0 5.332 1.582c2.502.254 4.944-.02 7.325-.82a6.354 6.354 0 0 0 2.607-1.67 2.22 2.22 0 0 0 .352-.586c.094.13.163.266.205.41Zm-30 4.043v-1.816c.052-.121.12-.239.206-.352a4.074 4.074 0 0 0 1.494 1.553 13.591 13.591 0 0 0 6.094 1.582 18.38 18.38 0 0 0 3.398-.147v2.579a19.406 19.406 0 0 1-7.207-.498A7.223 7.223 0 0 1 .47 18.956a3.619 3.619 0 0 1-.498-.938Z"/><path d="M29.97 18.604v1.817a3.25 3.25 0 0 1-.878 1.318 9.933 9.933 0 0 1-4.453 1.875c-3.084.555-6.111.34-9.082-.645a5.59 5.59 0 0 1-2.784-2.021 2.69 2.69 0 0 1-.263-1.465l.03-.762c.024-.171.082-.327.175-.468a5.282 5.282 0 0 0 2.49 2.021 16.815 16.815 0 0 0 7.441 1.055 13.295 13.295 0 0 0 5.567-1.524 4.505 4.505 0 0 0 1.582-1.552c.06.122.118.24.176.351Zm-30 3.867v-1.816c.058-.112.117-.229.176-.352a5.158 5.158 0 0 0 1.7 1.612c1.75.881 3.605 1.37 5.566 1.465 1.252.05 2.502.02 3.75-.088-.01.527 0 1.055.03 1.582.082.296.17.589.263.879a19.77 19.77 0 0 1-7.383-.381 9.999 9.999 0 0 1-2.93-1.348 3.529 3.529 0 0 1-1.171-1.553Z"/><path d="M29.97 22.999v1.816a3.748 3.748 0 0 1-1.757 1.963 13.56 13.56 0 0 1-5.977 1.523 16.927 16.927 0 0 1-6.562-.879 6.171 6.171 0 0 1-2.842-1.963 2.432 2.432 0 0 1-.322-1.523 2.743 2.743 0 0 1 .205-1.289 4.739 4.739 0 0 0 2.197 1.904 15.94 15.94 0 0 0 6.973 1.23 14.198 14.198 0 0 0 6.152-1.464 4.26 4.26 0 0 0 1.758-1.67c.06.123.118.24.176.352Z"/></g><defs><clipPath id="a"><path fill="#fff" d="M0 0h30v30H0z"/></clipPath></defs></svg>