<svg width="30" height="30" fill="none" xmlns="http://www.w3.org/2000/svg"><g clip-path="url(#a)"><path opacity=".983" fill-rule="evenodd" clip-rule="evenodd" d="M13.842.012c6.04-.199 10.71 2.207 14.01 7.216 2.469 4.349 2.81 8.862 1.022 13.538-1.986 4.49-5.337 7.417-10.054 8.78-5.903 1.31-10.935-.212-15.096-4.565C.302 20.849-.762 16.166.533 10.93c1.395-4.61 4.3-7.877 8.713-9.802A16.49 16.49 0 0 1 13.842.012Zm-4.98 2.873c.75.335 1.271.888 1.565 1.66.208.217.453.377.734.48l2.042.064c.99.375 1.257 1.046.798 2.011-.14.162-.3.3-.479.415L9.82 9.367c-.72.461-1.411.961-2.074 1.5a9.789 9.789 0 0 0-.447.959 1.948 1.948 0 0 0 0 .702c.44.936.195 1.628-.734 2.076a1.61 1.61 0 0 1-.638 0 43.319 43.319 0 0 1-2.49-1.405 2.87 2.87 0 0 1-.542-.48 11.33 11.33 0 0 1-.703-2.234c1.29-3.365 3.513-5.898 6.67-7.6Zm14.49 1.47a13.503 13.503 0 0 1 3.575 4.182 2.095 2.095 0 0 1-.957-.064 8.417 8.417 0 0 0-1.022-.702 11.64 11.64 0 0 0-1.723 0c-.497.216-.987.45-1.468.702-1 .277-1.617-.085-1.852-1.085a1.94 1.94 0 0 1 .288-.735l1.436-1.437 1.723-.862Zm.128 6.513c.74.229 1.485.452 2.234.67a46.05 46.05 0 0 0 2.426.032c.99 4.17.255 8.002-2.202 11.495-.256.309-.522.607-.798.894a.655.655 0 0 1-.096-.256 24.939 24.939 0 0 0-.128-2.362l-1.213-2.427a4.663 4.663 0 0 1-.191-1.213c-.38-.919-1.05-1.228-2.01-.926a7.306 7.306 0 0 1-.83.383c-.713.128-1.255-.117-1.628-.735a4.73 4.73 0 0 1-.447-2.873 1.31 1.31 0 0 1 .606-.99 31.11 31.11 0 0 1 1.596-1.022l2.681-.67Zm-13.66 4.15a7.494 7.494 0 0 1 1.532.096c.274.167.529.359.766.575.273.066.55.108.83.128.22.07.379.209.479.415l.191.83c.061.069.114.143.16.224.734.4 1.48.782 2.234 1.15a.84.84 0 0 1 .35.542 4.1 4.1 0 0 1 0 1.022l-.701 2.107-1.277 1.277-.191.383a202.485 202.485 0 0 1-.639 3.13 2.24 2.24 0 0 1-1.244.766 3.626 3.626 0 0 1-.447-.16l-1.181-1.181-.575-1.15-.191-3.64a1.307 1.307 0 0 1-.16-.223c-.351-.208-.713-.4-1.085-.575a22.041 22.041 0 0 1-1.436-2.075 2.052 2.052 0 0 1 .064-1.405 3.756 3.756 0 0 1 1.18-.735 5.14 5.14 0 0 0 .607-1.053c.188-.259.433-.408.734-.447Z" fill="#fff"/></g><defs><clipPath id="a"><path fill="#fff" d="M0 0h30v30H0z"/></clipPath></defs></svg>