<svg width="30" height="30" fill="none" xmlns="http://www.w3.org/2000/svg"><path opacity=".982" fill-rule="evenodd" clip-rule="evenodd" d="M30 15.066v.82c-.073.226-.18.44-.322.645L18.574 27.635c-.621.38-1.266.42-1.933.117a21.85 21.85 0 0 1-1.377-1.319c-.485-.69-.504-1.394-.059-2.11l6.416-6.415-20.039-.059C.783 17.763.256 17.343 0 16.59v-2.285c.263-.74.79-1.14 1.582-1.2l19.98-.06-6.24-6.24c-.559-.747-.579-1.509-.058-2.285.44-.46.9-.9 1.377-1.318.667-.303 1.312-.264 1.933.117l11.104 11.104c.141.204.248.419.322.644Z" fill="#fff"/></svg>