<svg width="30" height="30" fill="none" xmlns="http://www.w3.org/2000/svg"><path d="M1.678 2.005c6.74-.011 13.48 0 20.22.033.872.185 1.419.71 1.64 1.574.034.557.045 1.115.034 1.673H.004c-.011-.558 0-1.116.034-1.673.238-.86.785-1.395 1.64-1.607ZM.004 7.361c9.084-.011 18.167 0 27.25.034.873.184 1.42.709 1.641 1.573.034 1.607.045 3.214.034 4.82.503-.02.85.202 1.038.67a96.564 96.564 0 0 1 0 5.089c-.203.492-.57.748-1.105.77.078 1.948.089 3.9.033 5.858-.286.911-.9 1.436-1.841 1.574-8.506.066-17.009.044-25.51-.067-.768-.233-1.27-.735-1.506-1.507C.004 19.904-.007 13.632.004 7.361Zm24.305 8.637c.987-.03 1.969.004 2.946.1.533.355.678.835.435 1.44a1.132 1.132 0 0 1-.77.502c-.897.062-1.79.04-2.678-.067-.62-.387-.766-.911-.435-1.573.141-.175.309-.31.502-.402Z" opacity=".996" fill-rule="evenodd" clip-rule="evenodd" fill="#fff"/></svg>