<svg width="30" height="30" fill="none" xmlns="http://www.w3.org/2000/svg"><path d="M3.578 0H14.77c1.36.315 2.209 1.154 2.548 2.52.068 4.158.098 8.318.088 12.48.01 4.162-.02 8.322-.088 12.48-.34 1.366-1.189 2.205-2.549 2.52H3.58c-1.348-.36-2.197-1.22-2.55-2.578-.04-8.282-.04-16.563 0-24.844C1.362 1.2 2.212.341 3.58 0Zm3.399 2.754c1.465-.01 2.93 0 4.394.03.512.246.62.607.322 1.083a1.731 1.731 0 0 1-.263.147 87.015 87.015 0 0 1-4.512 0c-.405-.221-.513-.543-.322-.967.115-.12.242-.218.38-.293ZM9.086 24.55c1.033.105 1.492.671 1.377 1.699-.308.816-.884 1.118-1.729.908-.732-.36-.995-.936-.79-1.728.239-.484.62-.777 1.142-.88ZM26.337 3.03h-8.105v24.193h8.105c1.097-.253 1.782-.93 2.056-2.032.054-3.353.078-6.708.07-10.065.008-3.356-.016-6.711-.07-10.065-.274-1.1-.96-1.778-2.056-2.032Zm-2.74 2.244a132.926 132.926 0 0 0-3.545-.024c-.112.06-.214.14-.307.237-.153.341-.067.601.26.78 1.213.03 2.426.03 3.639 0 .074-.034.145-.074.212-.119.24-.384.153-.675-.26-.874Zm-.733 18.925c.093-.829-.277-1.286-1.11-1.37a1.246 1.246 0 0 0-.922.709c-.165.638.048 1.103.638 1.393.681.17 1.146-.074 1.394-.732Z" opacity=".995" fill-rule="evenodd" clip-rule="evenodd" fill="#fff"/></svg>