<svg width="30" height="30" fill="none" xmlns="http://www.w3.org/2000/svg"><path opacity=".99" fill-rule="evenodd" clip-rule="evenodd" d="M14.14.007a6.488 6.488 0 0 1 2.094.244 329.109 329.109 0 0 1 8.721 3.35c1.33.856 2.087 2.077 2.268 3.662a553.21 553.21 0 0 1 0 12.49c-.137 1.332-.707 2.437-1.71 3.314a502.467 502.467 0 0 0-8.023 6c-1.71 1.142-3.478 1.235-5.303.28a873.684 873.684 0 0 0-8.443-6.28c-.982-.86-1.552-1.941-1.71-3.244-.046-4.21-.046-8.42 0-12.63.237-1.811 1.18-3.102 2.827-3.872l7.814-2.93a7.797 7.797 0 0 1 1.466-.384Zm4.815 9.768c.997.17 1.334.728 1.012 1.675l-6.733 6.733c-.46.25-.901.226-1.326-.07a71.189 71.189 0 0 1-2.617-2.686c-.293-.902.02-1.437.942-1.605.261.006.494.087.698.244l1.71 1.71 5.756-5.756a3.02 3.02 0 0 1 .558-.245Z" fill="#fff"/></svg>