<svg width="30" height="30" fill="none" xmlns="http://www.w3.org/2000/svg"><g opacity=".978" fill-rule="evenodd" clip-rule="evenodd" fill="#fff"><path d="M3.34 0h6.68c.794.377 1.077 1.002.85 1.875-.178.45-.5.734-.968.85l-6.093.058c-.577.108-.918.45-1.026 1.026l-.058 6.093c-.19.678-.64 1.03-1.348 1.055-.663-.03-1.122-.343-1.377-.938V3.34C.43 1.544 1.543.43 3.34 0Zm16.64 0h6.68c1.797.43 2.91 1.543 3.34 3.34v6.68c-.377.794-1.002 1.077-1.875.85-.45-.178-.734-.5-.85-.968l-.058-6.093c-.108-.577-.45-.918-1.026-1.026l-6.093-.058c-.678-.19-1.03-.64-1.055-1.348.03-.663.343-1.122.938-1.377Z"/><path d="M6.387 5.45c2.11-.01 4.219 0 6.328.029.485.152.787.475.908.966.04 2.07.04 4.141 0 6.211-.126.517-.449.84-.967.967-2.07.04-4.14.04-6.21 0-.492-.12-.815-.423-.967-.908-.04-2.11-.04-4.219 0-6.328.157-.46.46-.773.908-.938Zm1.816 2.753h2.695v2.695H8.203V8.203Zm9.082-2.753c2.11-.01 4.219 0 6.328.029.46.146.762.449.909.908.039 2.11.039 4.218 0 6.328-.153.485-.475.787-.967.908-2.07.04-4.141.04-6.211 0-.518-.127-.84-.45-.967-.967-.04-2.07-.04-4.14 0-6.21.132-.493.434-.826.908-.997Zm1.817 2.753h2.695v2.695h-2.695V8.203ZM6.445 16.348c2.07-.01 4.141 0 6.211.029.518.127.84.45.967.967.04 2.07.04 4.14 0 6.21-.12.493-.423.815-.908.968-2.11.039-4.219.039-6.328 0a1.327 1.327 0 0 1-.908-.909c-.04-2.11-.04-4.218 0-6.328.163-.486.485-.798.966-.937Zm1.758 2.754h2.695v2.695H8.203v-2.695Zm9.141-2.754c.84-.152 1.416.16 1.728.937.056.805.036 1.606-.058 2.402-.404.705-1 .95-1.787.733a1.404 1.404 0 0 1-.85-.908 20.05 20.05 0 0 1 0-2.168c.138-.52.46-.851.967-.996Zm4.101 0c.704-.01 1.407 0 2.11.029.492.12.814.423.966.908.2.863-.104 1.458-.908 1.787-.742.04-1.484.04-2.226 0-.804-.329-1.107-.924-.909-1.787.164-.486.486-.798.967-.937Z"/><path d="M10.02 30H3.34C1.543 29.57.43 28.457 0 26.66v-6.68c.377-.794 1.002-1.077 1.875-.85.45.178.734.5.85.968l.058 6.093c.108.577.45.918 1.026 1.026l6.093.058c.678.19 1.03.64 1.055 1.348-.03.663-.343 1.122-.938 1.377ZM30 19.98v6.68c-.43 1.797-1.543 2.91-3.34 3.34h-6.68c-.794-.377-1.077-1.002-.85-1.875.178-.45.5-.734.968-.85l6.093-.058c.577-.108.918-.45 1.026-1.026l.058-6.093c.19-.678.64-1.03 1.348-1.055.663.03 1.122.343 1.377.938Z"/><path d="M18.75 21.797c1.602-.01 3.203 0 4.805.03.492.12.814.423.966.907.2.863-.104 1.459-.908 1.787-1.66.04-3.32.04-4.98 0-.63-.222-.942-.671-.938-1.347.023-.723.375-1.182 1.055-1.377Z"/></g></svg>