<svg width="40" height="40" fill="none" xmlns="http://www.w3.org/2000/svg"><path fill-rule="evenodd" clip-rule="evenodd" d="M6.875 6.625a.25.25 0 0 0-.25.25v26.25a.25.25 0 0 0 .25.25h26.25a.25.25 0 0 0 .25-.25V6.875a.25.25 0 0 0-.25-.25H6.875Zm-2.25.25a2.25 2.25 0 0 1 2.25-2.25h26.25a2.25 2.25 0 0 1 2.25 2.25v26.25a2.25 2.25 0 0 1-2.25 2.25H6.875a2.25 2.25 0 0 1-2.25-2.25V6.875Z" fill="#F87E1B"/><path fill-rule="evenodd" clip-rule="evenodd" d="M18.75 16.5a1 1 0 0 1 1 1v10a1 1 0 0 1-2 0v-10a1 1 0 0 1 1-1Zm-5 0a1 1 0 0 1 1 1v10a1 1 0 0 1-2 0v-10a1 1 0 0 1 1-1Z" fill="#F87E1B"/><path fill-rule="evenodd" clip-rule="evenodd" d="M23.125 18.5a3.375 3.375 0 0 0-3.375 3.375 1 1 0 0 1-2 0 5.375 5.375 0 0 1 10.75 0V27.5a1 1 0 0 1-2 0v-5.625a3.375 3.375 0 0 0-3.375-3.375Z" fill="#F87E1B"/><path d="M13.75 14.375a1.875 1.875 0 1 0 0-3.75 1.875 1.875 0 0 0 0 3.75Z" fill="#F87E1B"/></svg>