<svg width="100" height="114" fill="none" xmlns="http://www.w3.org/2000/svg"><g clip-path="url(#a)"><path d="m91.447 35.494-8.15-6.833V14.784c0-1.737-2.032-2.685-3.362-1.567l-7.53 6.312-9.418-7.894-6.49 5.441c3.386-2.84 3.386-8.046 0-10.886l-6.492 5.442c3.387-2.84 3.387-8.046 0-10.886l-22.4 18.777-7.527-6.312c-1.332-1.118-3.366-.17-3.366 1.567v13.877l-8.148 6.83A9.202 9.202 0 0 0 5.27 42.54v18.822l4.81-4.032v19.062l18-15.092 5.34 4.475 13.274-11.13a5.153 5.153 0 0 1 6.616 0l13.275 11.13 5.34-4.475 18.002 15.093V57.33l4.81 4.032V42.541a9.202 9.202 0 0 0-3.294-7.056" fill="#595A5A"/><path d="M71.925 60.557c.172 0 .345.06.485.179l16.762 14.05V57.342a.75.75 0 0 1 .438-.684.76.76 0 0 1 .806.107l3.566 2.989V42.553a8.431 8.431 0 0 0-3.024-6.476l-8.15-6.833a.748.748 0 0 1-.27-.58V14.792c0-.515-.28-.952-.747-1.169a1.26 1.26 0 0 0-1.378.181l-7.53 6.31a.76.76 0 0 1-.973 0l-8.93-7.484-5.996 5.028s-.006.006-.01.006a.757.757 0 1 1-.97-1.157 6.343 6.343 0 0 0 2.269-4.864 6.332 6.332 0 0 0-1.807-4.437l-5.982 5.014a.758.758 0 0 1-1.219-.345.759.759 0 0 1 .246-.812 6.33 6.33 0 0 0 2.27-4.865 6.332 6.332 0 0 0-1.806-4.436L28.085 20.11a.76.76 0 0 1-.974 0l-7.53-6.313a1.266 1.266 0 0 0-1.374-.18 1.26 1.26 0 0 0-.748 1.168v13.874a.757.757 0 0 1-.27.58l-8.15 6.832a8.44 8.44 0 0 0-3.023 6.476V59.75l3.564-2.99a.76.76 0 0 1 .807-.107.76.76 0 0 1 .438.684V74.78l16.762-14.05a.753.753 0 0 1 .973 0l4.854 4.069 12.79-10.72a5.899 5.899 0 0 1 7.589 0l12.788 10.72 4.855-4.068a.747.747 0 0 1 .485-.178m18.003 16.603a.736.736 0 0 1-.485-.178L71.922 62.29l-4.854 4.068a.76.76 0 0 1-.974 0L52.82 55.232a4.386 4.386 0 0 0-5.643 0L33.903 66.359a.76.76 0 0 1-.973 0l-4.854-4.068-17.518 14.683a.757.757 0 0 1-1.244-.577V58.955l-3.566 2.988a.756.756 0 0 1-1.244-.577V42.544a9.944 9.944 0 0 1 3.562-7.635l7.879-6.604V14.782c0-1.1.619-2.076 1.619-2.54a2.779 2.779 0 0 1 2.988.393l7.042 5.905L49.517.176a.76.76 0 0 1 .973 0 7.839 7.839 0 0 1 2.58 7.904l2.938-2.462a.76.76 0 0 1 .973 0 7.84 7.84 0 0 1 2.58 7.903l2.938-2.462a.76.76 0 0 1 .973 0l8.93 7.484 7.04-5.902a2.777 2.777 0 0 1 2.99-.393c1 .464 1.618 1.44 1.618 2.54V28.31l7.878 6.607a9.94 9.94 0 0 1 3.563 7.635v18.822a.75.75 0 0 1-.438.684.76.76 0 0 1-.806-.107l-3.566-2.988v17.442a.75.75 0 0 1-.437.684.753.753 0 0 1-.32.071m1.57 10.269a.722.722 0 0 1-.53-.22.756.756 0 0 1-.226-.535c0-.202.084-.393.227-.535.27-.28.78-.289 1.065 0 .03.038.068.074.092.113.03.044.054.092.069.136a.38.38 0 0 1 .044.143c.015.045.015.098.015.143a.74.74 0 0 1-.053.288.962.962 0 0 1-.167.25.752.752 0 0 1-.536.22" fill="#010101"/><path d="M83.295 39.946a.757.757 0 0 1-.756-.756V28.662a.757.757 0 0 1 1.512 0V39.19c0 .42-.34.756-.756.756Z" fill="#010101"/><path d="m49.011 64.836-5.973-7.112-6.173 5.174a5.365 5.365 0 0 1-6.893 0l-8.455-7.089c-1.905-1.597-4.81-.244-4.81 2.239v8.076c0 1.308.58 2.548 1.583 3.39l5.34 4.475 7.226 6.06 18.152-15.216.003.003Z" fill="#F3C417"/><path d="m36.271 55.532 7.485-6.274a4.055 4.055 0 0 0 0-6.22L27.125 29.096v22.178c0 4.725 5.524 7.297 9.146 4.261" fill="#fff"/><path d="M27.883 30.716v20.558a4.766 4.766 0 0 0 2.777 4.356 4.774 4.774 0 0 0 5.125-.675l7.485-6.274a3.3 3.3 0 0 0 .873-3.93 3.3 3.3 0 0 0-.873-1.136L27.883 30.716Zm4.828 26.886c-.929 0-1.847-.205-2.688-.6a6.26 6.26 0 0 1-3.652-5.728V29.096a.75.75 0 0 1 .438-.684.76.76 0 0 1 .806.107L44.246 42.46a4.805 4.805 0 0 1 1.273 5.727 4.805 4.805 0 0 1-1.273 1.653l-7.485 6.274a6.285 6.285 0 0 1-4.047 1.49" fill="#010101"/><path d="m63.735 55.532-7.485-6.274a4.054 4.054 0 0 1 0-6.22l16.63-13.942v22.178c0 4.725-5.523 7.297-9.145 4.261" fill="#fff"/><path d="M72.12 30.715 56.731 43.614a3.302 3.302 0 0 0-.872 3.931c.204.438.502.826.872 1.136l7.485 6.274a4.773 4.773 0 0 0 5.125.675 4.76 4.76 0 0 0 2.777-4.356V30.715Zm-4.83 26.886a6.268 6.268 0 0 1-4.047-1.49l-7.486-6.274a4.805 4.805 0 0 1-1.723-3.69c0-1.427.628-2.77 1.723-3.69L72.39 28.515a.756.756 0 0 1 1.244.577V51.27a6.26 6.26 0 0 1-3.652 5.726 6.388 6.388 0 0 1-2.688.601m27.446 4.537a.79.79 0 0 1-.294-.06.641.641 0 0 1-.24-.166.749.749 0 0 1-.096-.949.76.76 0 0 1 .335-.281.742.742 0 0 1 .438-.04c.045.01.098.025.143.04.045.023.092.044.128.068.045.03.083.06.113.098a.756.756 0 0 1 .226.535.742.742 0 0 1-.226.53.748.748 0 0 1-.53.226M37.524 48.374a3.715 3.715 0 0 0 1.33-2.851v-6.595l-7.456-6.25V45.52c0 3.164 3.7 4.885 6.123 2.851" fill="#010101"/><path d="M32.16 34.302v11.222c0 1.183.642 2.188 1.714 2.69 1.074.503 2.256.346 3.163-.416a2.957 2.957 0 0 0 1.063-2.274v-6.242l-5.94-4.98Zm2.982 15.709c-.643 0-1.292-.14-1.908-.428a4.44 4.44 0 0 1-2.59-4.06V32.682a.75.75 0 0 1 .438-.683.76.76 0 0 1 .807.107l7.455 6.25a.748.748 0 0 1 .27.58v6.595a4.467 4.467 0 0 1-1.6 3.431 4.455 4.455 0 0 1-2.87 1.056m27.335-1.644a3.716 3.716 0 0 1-1.33-2.851v-6.595l7.455-6.25V45.52c0 3.164-3.7 4.885-6.122 2.851" fill="#010101"/><path d="M62.962 47.798a2.907 2.907 0 0 0 3.167.417c1.074-.5 1.714-1.505 1.714-2.691V34.302l-5.94 4.98v6.242c0 .88.385 1.707 1.059 2.274Zm1.899 2.213a4.456 4.456 0 0 1-2.87-1.056 4.47 4.47 0 0 1-1.6-3.431v-6.595a.76.76 0 0 1 .27-.58l7.456-6.25a.756.756 0 0 1 1.244.577v12.842c0 1.76-.991 3.315-2.59 4.059a4.522 4.522 0 0 1-1.907.428" fill="#010101"/><path d="M63.264 46.53a.757.757 0 0 1-.756-.756v-5.536a.756.756 0 0 1 1.512 0v5.536c0 .42-.34.756-.756.756Z" fill="#fff"/><path d="M58.937 41.54a.757.757 0 0 1-.488-1.335l19.327-16.202a.758.758 0 0 1 .973 1.157l-19.326 16.2a.753.753 0 0 1-.485.179l-.001.001Z" fill="#010101"/><path d="M33.518 46.53a.757.757 0 0 1-.756-.756v-5.536a.756.756 0 0 1 1.512 0v5.536c0 .42-.34.756-.756.756Z" fill="#fff"/><path d="M20.073 13.223c-1.333-1.118-3.366-.17-3.366 1.567v24.397l.795-.666a7.184 7.184 0 0 0 2.568-5.504V13.223h.003ZM51.998 3.47 50 .752 27.6 19.529l2.617 2.198L51.998 3.47Zm10.989 8.169-6.49 5.44h2.618a7.19 7.19 0 0 0 4.622-1.68l1.87-1.566-2.62-2.194Z" fill="#908F8F"/><path d="M13.44 57.34a3.36 3.36 0 0 0-4.808-3.035V42.55c0-1.734.762-3.366 2.092-4.481l5.985-5.02v-4.388l-8.15 6.83a9.204 9.204 0 0 0-3.293 7.056V61.37l4.81-4.032V76.4l3.365-2.821V57.335v.005Zm69.855-42.552c0-1.736-2.033-2.685-3.366-1.567l-23.156 19.41h2.62c1.69 0 3.327-.594 4.622-1.68l19.28-16.16v-.003ZM57.49 7.556l-.997-1.359-12.985 10.886h2.619c1.69 0 3.327-.595 4.622-1.68l7.738-6.485-.997-1.359v-.003Z" fill="#908F8F"/><path d="M43.51 17.838a.757.757 0 0 1-.488-1.335l6.492-5.442a.757.757 0 0 1 .973 1.157l-6.49 5.441a.753.753 0 0 1-.486.179ZM28.526 70.647a.749.749 0 0 1-.485-.178l-6.786-5.688a.752.752 0 0 1-.092-1.065.753.753 0 0 1 1.066-.092l6.786 5.688a.75.75 0 0 1 .092 1.065.752.752 0 0 1-.58.27Z" fill="#010101"/><path d="m50.996 64.836 5.973-7.112 6.173 5.174a5.365 5.365 0 0 0 6.893 0l8.456-7.089c1.904-1.597 4.81-.244 4.81 2.239v8.076a4.427 4.427 0 0 1-1.584 3.39l-5.34 4.475-7.229 6.06-18.152-15.216v.003Z" fill="#F3C417"/><path d="M71.48 70.646a.757.757 0 0 1-.488-1.335l6.785-5.688a.756.756 0 0 1 .974 1.156l-6.786 5.689a.753.753 0 0 1-.485.178ZM41.068 41.539a.747.747 0 0 1-.485-.179L21.255 25.158a.756.756 0 0 1 .973-1.157l19.328 16.203a.753.753 0 0 1-.487 1.334l-.001.001Z" fill="#010101"/><path d="m52.06 64.744 17.087 14.323 12.08-10.127a3.663 3.663 0 0 0 1.313-2.81v-8.076c0-.865-.468-1.6-1.253-1.965a2.125 2.125 0 0 0-2.313.303l-8.455 7.086a6.107 6.107 0 0 1-7.864 0l-5.592-4.686-5 5.952h-.003ZM69.147 80.81a.748.748 0 0 1-.486-.179l-18.15-15.215a.75.75 0 0 1-.093-1.064l5.973-7.113a.749.749 0 0 1 .515-.267c.2-.018.4.044.55.175l6.174 5.174a4.598 4.598 0 0 0 5.92 0l8.455-7.089a3.656 3.656 0 0 1 3.926-.517 3.65 3.65 0 0 1 2.128 3.336v8.076a5.175 5.175 0 0 1-1.852 3.97L69.638 80.63a.748.748 0 0 1-.485.179M19.65 55.874c-.312 0-.627.072-.93.211a2.12 2.12 0 0 0-1.254 1.966v8.075c0 1.089.48 2.112 1.313 2.81l12.08 10.128L47.946 64.74l-5-5.953-5.593 4.686a6.107 6.107 0 0 1-7.863 0l-8.455-7.088a2.152 2.152 0 0 0-1.38-.515m11.207 24.932a.747.747 0 0 1-.485-.178L17.808 70.09a5.159 5.159 0 0 1-1.85-3.97v-8.075a3.65 3.65 0 0 1 2.127-3.337 3.65 3.65 0 0 1 3.926.518l8.455 7.089a4.598 4.598 0 0 0 5.92 0l6.173-5.174a.76.76 0 0 1 .55-.176c.2.018.384.113.515.268l5.974 7.112a.757.757 0 0 1-.093 1.065L31.353 80.625a.747.747 0 0 1-.485.178" fill="#010101"/><path d="M46.693 54.661.758 93.167l45.364-16.496c1.243-.452 3.555-.684 4.878-.684v-22.53c-1.21-.001-3.381.425-4.307 1.204Z" fill="#F3C417"/><path d="M53.31 54.661A5.137 5.137 0 0 0 50 53.457v22.53c1.313 0 2.625.229 3.878.684l45.364 16.496L53.31 54.661Z" fill="#F99E1C"/><path d="M50.003 86.557 33.797 92.45l16.206 9.348L66.21 92.45l-16.207-5.893Z" fill="#C22026"/><path d="m33.794 92.451-13.036 4.74 23.572 13.597c1.724.995 4.68 1.519 6.67 1.52v-10.505l-17.206-9.349v-.003Z" fill="#F27121"/><path d="M66.209 92.45 50 101.8v10.505c1.958 0 3.917-.506 5.67-1.52l23.572-13.597-13.036-4.74.003.002Z" fill="#E45625"/><path d="m22.543 97.347 22.167 12.786c3.214 1.855 7.372 1.855 10.583 0L77.46 97.347l-11.178-4.064-15.902 9.173a.77.77 0 0 1-.756 0l-15.902-9.173-11.18 4.064Zm27.459 15.715c-2.12 0-4.212-.559-6.048-1.621L20.382 97.844a.754.754 0 0 1 .12-1.365l13.035-4.74a.749.749 0 0 1 .637.057l15.83 9.131 15.828-9.131a.75.75 0 0 1 .637-.057l13.036 4.74a.755.755 0 0 1 .12 1.365L56.05 111.44a12.132 12.132 0 0 1-6.047 1.621" fill="#010101"/><path d="M47.122 76.671.758 93.168l7.434 4.287a11.352 11.352 0 0 0 9.548.836L51 86.56V75.99c-1.313 0-2.625.228-3.878.683" fill="#F99E1C"/><path d="M53.878 76.67A11.365 11.365 0 0 0 50 75.986v10.57l32.26 11.731a11.352 11.352 0 0 0 9.547-.836l7.432-4.287-45.364-16.497.003.003Z" fill="#F27121"/><path d="m2.542 93.322 6.03 3.48a10.559 10.559 0 0 0 8.91.778l32.26-11.73c.168-.06.35-.06.518 0l32.26 11.73c2.95 1.07 6.196.788 8.91-.779l6.027-3.476-43.837-15.94a10.63 10.63 0 0 0-7.241 0L2.542 93.322Zm11.316 6.408c-2.096 0-4.18-.547-6.045-1.62L.378 93.821a.755.755 0 0 1 .12-1.365L45.86 75.963a12.138 12.138 0 0 1 8.274 0L99.5 92.457a.755.755 0 0 1 .12 1.365l-7.436 4.287A12.077 12.077 0 0 1 82 99L50 87.364 17.998 99.002a12.07 12.07 0 0 1-4.14.732" fill="#010101"/><path d="M50.006 75.234c1.416 0 2.81.244 4.137.728l41.33 15.028-42.646-35.752a4.386 4.386 0 0 0-5.643 0L4.534 90.99l41.332-15.028a12.026 12.026 0 0 1 4.137-.728m49.242 18.688a.795.795 0 0 1-.26-.045L53.623 77.384a10.62 10.62 0 0 0-7.238 0L1.02 93.874a.755.755 0 0 1-.744-1.29l45.932-38.506a5.898 5.898 0 0 1 7.59 0L99.73 92.584a.752.752 0 0 1-.108 1.233.764.764 0 0 1-.377.102" fill="#010101"/><path d="M50.002 94.936a.757.757 0 0 1-.756-.755V86.56a.757.757 0 0 1 1.512 0v7.62c0 .417-.34.756-.756.756Zm-4.568-32.573-5.36 4.492h5.36v-4.492Z" fill="#010101"/><path d="M42.154 66.097h2.524V63.98l-2.524 2.117Zm3.28 1.51h-5.36a.76.76 0 0 1-.712-.496.758.758 0 0 1 .224-.838l5.36-4.493a.756.756 0 0 1 1.244.577v4.492c0 .42-.34.755-.756.755m9.136-5.241 5.36 4.492h-5.36v-4.492Z" fill="#010101"/><path d="M55.327 66.096h2.524l-2.524-2.117v2.117Zm4.602 1.51h-5.36a.757.757 0 0 1-.757-.755V62.36a.75.75 0 0 1 .438-.684.76.76 0 0 1 .807.107l5.36 4.493a.753.753 0 0 1-.054 1.199.752.752 0 0 1-.434.135M27.883 30.716v20.558a4.766 4.766 0 0 0 2.777 4.356 4.774 4.774 0 0 0 5.125-.675l7.485-6.274a3.3 3.3 0 0 0 .873-3.93 3.3 3.3 0 0 0-.873-1.136L27.883 30.716Zm4.828 26.886c-.929 0-1.847-.205-2.688-.6a6.26 6.26 0 0 1-3.652-5.728V29.096a.75.75 0 0 1 .438-.684.76.76 0 0 1 .806.107L44.246 42.46a4.805 4.805 0 0 1 1.273 5.727 4.803 4.803 0 0 1-1.273 1.653l-7.485 6.274a6.284 6.284 0 0 1-4.047 1.49M72.12 30.715 56.732 43.614a3.302 3.302 0 0 0-.872 3.931c.204.438.502.826.872 1.136l7.485 6.274a4.773 4.773 0 0 0 5.125.675 4.76 4.76 0 0 0 2.777-4.356V30.715ZM67.29 57.601a6.268 6.268 0 0 1-4.047-1.49l-7.486-6.274a4.805 4.805 0 0 1-1.723-3.69c0-1.427.628-2.77 1.723-3.69L72.39 28.515a.756.756 0 0 1 1.244.577V51.27a6.26 6.26 0 0 1-3.652 5.726 6.389 6.389 0 0 1-2.688.601" fill="#010101"/><path d="M89.928 77.161a.736.736 0 0 1-.485-.178l-8.217-6.887a.756.756 0 0 1 .973-1.157l6.973 5.846V57.343a.75.75 0 0 1 .438-.684.76.76 0 0 1 .806.107l3.566 2.989V42.553a8.43 8.43 0 0 0-3.024-6.476l-8.15-6.833a.748.748 0 0 1-.27-.58V14.792c0-.515-.28-.952-.747-1.169a1.26 1.26 0 0 0-1.378.181l-7.53 6.31a.76.76 0 0 1-.973 0l-8.93-7.484-5.996 5.028s-.006.006-.01.006a.756.756 0 1 1-.97-1.157 6.343 6.343 0 0 0 2.269-4.864 6.332 6.332 0 0 0-1.807-4.437l-5.982 5.014a.757.757 0 1 1-.973-1.157 6.33 6.33 0 0 0 2.27-4.865 6.332 6.332 0 0 0-1.806-4.436L28.085 20.11a.76.76 0 0 1-.974 0l-7.53-6.313a1.266 1.266 0 0 0-1.374-.18 1.261 1.261 0 0 0-.748 1.168v13.874a.756.756 0 0 1-.27.58l-8.15 6.832a8.44 8.44 0 0 0-3.023 6.476V59.75l3.564-2.99a.76.76 0 0 1 .807-.107.76.76 0 0 1 .438.684V74.78l6.973-5.845a.756.756 0 0 1 .973 1.156l-8.214 6.887a.756.756 0 0 1-1.244-.577V58.958l-3.566 2.988a.756.756 0 0 1-1.244-.577V42.547a9.944 9.944 0 0 1 3.562-7.635l7.879-6.604V14.785c0-1.1.619-2.076 1.619-2.54a2.78 2.78 0 0 1 2.988.393l7.042 5.905L49.517.176a.76.76 0 0 1 .973 0 7.839 7.839 0 0 1 2.58 7.904l2.938-2.462a.76.76 0 0 1 .973 0 7.839 7.839 0 0 1 2.58 7.903l2.938-2.462a.76.76 0 0 1 .973 0l8.93 7.484 7.04-5.902a2.778 2.778 0 0 1 2.99-.393c1 .464 1.618 1.44 1.618 2.54V28.31l7.878 6.607a9.94 9.94 0 0 1 3.563 7.635v18.822a.75.75 0 0 1-.438.684.76.76 0 0 1-.806-.107l-3.566-2.988v17.442a.75.75 0 0 1-.756.755" fill="#010101"/><path d="M56.776 33.387a.757.757 0 0 1-.488-1.335l15.63-13.102a.757.757 0 0 1 .972 1.157l-15.628 13.1a.754.754 0 0 1-.486.18ZM16.71 39.946a.757.757 0 0 1-.757-.756V28.662a.757.757 0 0 1 1.512 0V39.19c0 .42-.339.756-.755.756Zm26.515-6.56a.749.749 0 0 1-.485-.178L27.115 20.107a.753.753 0 0 1 .138-1.25.753.753 0 0 1 .835.093l15.628 13.1a.752.752 0 0 1-.167 1.265.754.754 0 0 1-.32.071" fill="#010101"/></g><defs><clipPath id="a"><path fill="#fff" d="M0 0h100v114H0z"/></clipPath></defs></svg>