<svg width="240" height="120" viewBox="0 0 240 120" fill="none" xmlns="http://www.w3.org/2000/svg">
<path d="M124.251 50.4878C116.706 50.4878 110.999 56.3481 110.999 63.6077C110.999 71.2618 116.947 76.7289 124.251 76.7289C131.555 76.7289 137.48 71.2618 137.48 63.6077C137.48 56.3481 131.795 50.4878 124.251 50.4878ZM124.251 57.4194C127.509 57.3979 130.177 60.1751 130.177 63.6077C130.177 67.0195 127.509 69.7967 124.251 69.7967C120.993 69.7967 118.325 67.0195 118.325 63.6077C118.325 60.1751 120.993 57.4194 124.251 57.4194ZM162.001 72.1352C162.001 73.3531 161.517 74.5211 160.656 75.3823C159.795 76.2435 158.627 76.7273 157.409 76.7273C156.191 76.7273 155.023 76.2435 154.162 75.3823C153.3 74.5211 152.817 73.3531 152.817 72.1352C152.817 70.9173 153.3 69.7492 154.162 68.8881C155.023 68.0269 156.191 67.5431 157.409 67.5431C158.627 67.5431 159.795 68.0269 160.656 68.8881C161.517 69.7492 162.001 70.9173 162.001 72.1352ZM148.634 75.8529H141.417V43.2711H148.634V75.8529Z" fill="#000008"/>
<path fill-rule="evenodd" clip-rule="evenodd" d="M78 75.8529L91.1206 43.2711H97.8992L110.801 75.8529H101.617L100.086 71.2611H88.715L87.1842 75.8535L78 75.8529ZM97.8992 64.4825H91.1206L94.5096 53.5488L97.8992 64.4825Z" fill="#000008"/>
</svg>
