<svg width="240" height="120" fill="none" xmlns="http://www.w3.org/2000/svg"><path d="M212.538 67.762c.284 0 .557.02.821.059.268.039.478.085.63.139l-.249 1.728a7.785 7.785 0 0 0-.799-.132 6.89 6.89 0 0 0-.776-.043c-.293 0-.557.029-.791.087a1.952 1.952 0 0 0-.623.271 1.751 1.751 0 0 0-.498.447c-.136.18-.251.388-.344.623v4.892h-1.75V67.91h1.64l.073 1.098.008.183a3.627 3.627 0 0 1 1.157-1.047c.454-.254.955-.381 1.501-.381ZM201.6 75.98a4.296 4.296 0 0 1-1.611-.293 3.697 3.697 0 0 1-1.246-.813 3.596 3.596 0 0 1-.805-1.209 4.074 4.074 0 0 1-.279-1.516v-.3c0-.62.098-1.182.293-1.685.196-.502.464-.932.806-1.289a3.629 3.629 0 0 1 2.637-1.113c.571 0 1.076.098 1.516.293.439.19.808.457 1.106.798.298.347.522.76.674 1.238.151.479.227 1.001.227 1.568v.754h-5.493v.037c.053.346.136.637.249.871.112.234.266.445.461.63.195.195.425.347.688.454.269.108.562.161.879.161.435 0 .84-.083 1.216-.249a2.44 2.44 0 0 0 .93-.725l.938.908c-.264.381-.669.723-1.216 1.026-.542.302-1.199.454-1.97.454Zm-.213-6.797c-.249 0-.481.046-.695.14-.21.087-.398.214-.564.38-.166.17-.305.376-.418.615-.112.24-.195.51-.249.813h3.728v-.117c0-.23-.041-.456-.124-.681-.083-.23-.2-.43-.352-.6a1.55 1.55 0 0 0-.557-.396 1.8 1.8 0 0 0-.769-.154ZM191.467 72.384l-.952.9v2.55h-1.758v-11.25h1.758v6.62l.725-.805 2.366-2.49h2.109l-3.084 3.303 3.531 4.621h-2.168l-2.527-3.45ZM184.645 75.833a1.448 1.448 0 0 1-.132-.351 9.945 9.945 0 0 1-.081-.44 3.449 3.449 0 0 1-.417.367c-.152.112-.323.21-.513.292-.19.088-.396.157-.615.206a3.28 3.28 0 0 1-.711.073 3.46 3.46 0 0 1-1.128-.176 2.671 2.671 0 0 1-.864-.498 2.175 2.175 0 0 1-.571-.74 2.273 2.273 0 0 1-.198-.945c0-.434.086-.817.256-1.15.176-.336.43-.615.762-.834a3.504 3.504 0 0 1 1.135-.47 6.71 6.71 0 0 1 1.538-.16h1.275v-.535c0-.205-.037-.39-.11-.557a1.203 1.203 0 0 0-.3-.432 1.44 1.44 0 0 0-.52-.278 2.153 2.153 0 0 0-.696-.103c-.239 0-.449.03-.63.088a1.26 1.26 0 0 0-.439.242.866.866 0 0 0-.264.344 1.11 1.11 0 0 0-.081.425h-1.757c.004-.317.08-.623.227-.915.146-.293.361-.552.644-.777.274-.23.61-.41 1.011-.542a4.321 4.321 0 0 1 1.384-.205c.464 0 .896.059 1.297.176.405.112.754.28 1.047.505.293.225.522.51.688.857.166.342.249.737.249 1.187v3.523c0 .356.025.678.074.966.053.284.129.528.227.733v.124h-1.787Zm-2.132-1.26c.23 0 .442-.029.637-.087.201-.059.381-.135.542-.227.162-.093.301-.198.418-.315.117-.118.207-.24.271-.367v-1.464h-1.128c-.381 0-.71.036-.989.11-.278.068-.5.168-.666.3a1.078 1.078 0 0 0-.33.403 1.309 1.309 0 0 0-.102.527c0 .161.029.313.087.454a.972.972 0 0 0 .257.352c.112.097.251.175.417.234.166.054.362.08.586.08ZM172.468 65.17l1.319 4.562 1.457-4.563h2.19v10.664h-1.655v-3.618l.102-4.76-1.64 5.09h-.916l-1.487-4.915.096 4.585v3.618h-1.648V65.17h2.182ZM155.623 65.975v1.934h2.981v1.31h-2.981v3.787c0 .293.034.54.102.74.074.195.174.349.301.461.127.118.278.2.454.25.176.048.368.073.578.073.152 0 .308-.008.469-.022.161-.015.317-.034.469-.059.146-.02.283-.041.41-.066l.33-.073.19 1.208a2.156 2.156 0 0 1-.461.206c-.176.053-.367.1-.572.139-.205.039-.42.068-.644.088-.22.024-.44.036-.659.036-.401 0-.769-.054-1.106-.161a2.223 2.223 0 0 1-.857-.52 2.347 2.347 0 0 1-.564-.886c-.132-.362-.198-.796-.198-1.304V69.22h-1.919v-1.311h1.919v-1.934h1.758ZM146.647 75.98a4.296 4.296 0 0 1-1.611-.293 3.683 3.683 0 0 1-1.245-.813 3.584 3.584 0 0 1-.806-1.209 4.073 4.073 0 0 1-.278-1.516v-.3c0-.62.097-1.182.293-1.685.195-.502.464-.932.805-1.289a3.629 3.629 0 0 1 2.637-1.113c.571 0 1.077.098 1.516.293.44.19.808.457 1.106.798.298.347.523.76.674 1.238.151.479.227 1.001.227 1.568v.754h-5.493v.037c.054.346.137.637.249.871.112.234.266.445.461.63.196.195.425.347.689.454.268.108.561.161.879.161.434 0 .84-.083 1.215-.249.376-.17.687-.412.931-.725l.937.908c-.264.381-.669.723-1.216 1.026-.542.302-1.198.454-1.97.454Zm-.212-6.797c-.249 0-.481.046-.696.14-.21.087-.398.214-.564.38-.166.17-.305.376-.418.615-.112.24-.195.51-.249.813h3.728v-.117c0-.23-.041-.456-.124-.681-.083-.23-.2-.43-.352-.6a1.555 1.555 0 0 0-.556-.396 1.803 1.803 0 0 0-.769-.154ZM136.514 72.384l-.952.9v2.55h-1.758v-11.25h1.758v6.62l.725-.805 2.366-2.49h2.109l-3.083 3.303 3.53 4.621h-2.168l-2.527-3.45ZM130.109 67.762c.284 0 .557.02.821.059.268.039.478.085.63.139l-.249 1.728a7.785 7.785 0 0 0-.799-.132 6.89 6.89 0 0 0-.776-.043c-.293 0-.557.029-.791.087a1.942 1.942 0 0 0-.623.271 1.751 1.751 0 0 0-.498.447c-.137.18-.251.388-.344.623v4.892h-1.751V67.91h1.641l.073 1.098.008.183a3.627 3.627 0 0 1 1.157-1.047c.454-.254.954-.381 1.501-.381ZM120.533 75.833a1.448 1.448 0 0 1-.132-.351 9.966 9.966 0 0 1-.08-.44 3.46 3.46 0 0 1-.418.367c-.151.112-.322.21-.513.292-.19.088-.395.157-.615.206a3.264 3.264 0 0 1-.71.073 3.46 3.46 0 0 1-1.128-.176 2.671 2.671 0 0 1-.864-.498 2.166 2.166 0 0 1-.572-.74 2.288 2.288 0 0 1-.197-.945c0-.434.085-.817.256-1.15.176-.336.43-.615.762-.834a3.494 3.494 0 0 1 1.135-.47 6.703 6.703 0 0 1 1.538-.16h1.274v-.535c0-.205-.036-.39-.109-.557a1.218 1.218 0 0 0-.301-.432 1.431 1.431 0 0 0-.52-.278 2.153 2.153 0 0 0-.696-.103c-.239 0-.449.03-.629.088-.176.059-.323.14-.44.242a.875.875 0 0 0-.264.344c-.053.132-.08.274-.08.425h-1.758c.005-.317.081-.623.227-.915.147-.293.361-.552.645-.777.273-.23.61-.41 1.01-.542a4.328 4.328 0 0 1 1.385-.205c.464 0 .896.059 1.296.176.405.112.754.28 1.047.505.293.225.523.51.689.857.166.342.249.737.249 1.187v3.523c0 .356.024.678.073.966.054.284.13.528.227.733v.124h-1.787Zm-2.131-1.26c.229 0 .442-.029.637-.087.2-.059.381-.135.542-.227.161-.093.3-.198.417-.315.118-.118.208-.24.271-.367v-1.464h-1.128c-.38 0-.71.036-.988.11a1.72 1.72 0 0 0-.667.3 1.085 1.085 0 0 0-.329.403 1.292 1.292 0 0 0-.103.527c0 .161.029.313.088.454a.97.97 0 0 0 .256.352c.113.097.252.175.418.234.166.054.361.08.586.08ZM108.357 65.17l1.318 4.562 1.458-4.563h2.19v10.664h-1.656v-3.618l.103-4.76-1.641 5.09h-.915l-1.487-4.915.095 4.585v3.618h-1.648V65.17h2.183ZM179.986 47.908h4.204v6.475h2.33v1.45h-6.534v-1.45h2.439v-5.017h-2.439v-1.458Zm2.278-2.05c0-.142.025-.271.073-.388a.877.877 0 0 1 .528-.506c.127-.049.268-.073.425-.073.263 0 .476.068.637.205a.738.738 0 0 1 .285.513.762.762 0 0 1-.109.564.79.79 0 0 1-.469.315.77.77 0 0 1-.366.183.929.929 0 0 1-.469-.037.724.724 0 0 1-.403-.285.91.91 0 0 1-.132-.491ZM173.874 54.574c.22 0 .43-.032.63-.096a1.79 1.79 0 0 0 .542-.285c.152-.122.271-.266.359-.432.093-.166.139-.35.139-.55h1.648c.005.386-.083.75-.263 1.092a2.737 2.737 0 0 1-.718.871 3.598 3.598 0 0 1-2.315.813c-.61 0-1.145-.105-1.604-.315a3.298 3.298 0 0 1-1.135-.864 3.707 3.707 0 0 1-.696-1.26 5.003 5.003 0 0 1-.234-1.545v-.257c0-.542.076-1.054.227-1.538.156-.483.388-.905.696-1.267a3.286 3.286 0 0 1 1.142-.857c.459-.215.992-.322 1.597-.322.479 0 .921.073 1.326.22.41.146.762.351 1.054.615a2.814 2.814 0 0 1 .923 2.153h-1.648c0-.215-.041-.417-.124-.608a1.456 1.456 0 0 0-.337-.498 1.692 1.692 0 0 0-.542-.337 1.757 1.757 0 0 0-.667-.124c-.366 0-.671.076-.915.227-.239.147-.43.34-.571.579-.152.239-.259.512-.323.82-.058.308-.087.62-.087.937v.257c0 .322.029.64.087.952.064.308.169.578.315.813.142.244.335.44.579.586.244.146.549.22.915.22ZM164.716 54.574c.219 0 .429-.032.63-.096.205-.068.385-.163.542-.285.151-.122.271-.266.358-.432.093-.166.14-.35.14-.55h1.648c.004.386-.083.75-.264 1.092a2.737 2.737 0 0 1-.718.871 3.598 3.598 0 0 1-2.314.813c-.611 0-1.145-.105-1.604-.315a3.302 3.302 0 0 1-1.136-.864 3.688 3.688 0 0 1-.695-1.26 4.973 4.973 0 0 1-.235-1.545v-.257c0-.542.076-1.054.227-1.538a3.68 3.68 0 0 1 .696-1.267 3.299 3.299 0 0 1 1.143-.857c.459-.215.991-.322 1.596-.322.479 0 .921.073 1.326.22.41.146.762.351 1.055.615a2.829 2.829 0 0 1 .923 2.153h-1.648c0-.215-.042-.417-.125-.608a1.442 1.442 0 0 0-.337-.498 1.692 1.692 0 0 0-.542-.337 1.756 1.756 0 0 0-.666-.124c-.367 0-.672.076-.916.227-.239.147-.43.34-.571.579a2.42 2.42 0 0 0-.322.82c-.059.308-.088.62-.088.937v.257c0 .322.029.64.088.952.063.308.168.578.315.813.141.244.334.44.578.586.244.146.549.22.916.22ZM157.168 55.833a1.536 1.536 0 0 1-.132-.351 9.966 9.966 0 0 1-.08-.44 3.386 3.386 0 0 1-.418.366c-.151.113-.322.21-.512.294a3.051 3.051 0 0 1-.616.205 3.264 3.264 0 0 1-.71.073 3.46 3.46 0 0 1-1.128-.176 2.671 2.671 0 0 1-.864-.498 2.178 2.178 0 0 1-.572-.74 2.288 2.288 0 0 1-.197-.945c0-.434.085-.818.256-1.15.176-.336.43-.615.762-.834a3.494 3.494 0 0 1 1.135-.47 6.703 6.703 0 0 1 1.538-.16h1.275v-.535c0-.205-.037-.39-.11-.557a1.218 1.218 0 0 0-.301-.432 1.431 1.431 0 0 0-.52-.278 2.15 2.15 0 0 0-.695-.103c-.24 0-.45.03-.63.088-.176.059-.323.14-.44.242a.864.864 0 0 0-.263.344 1.11 1.11 0 0 0-.081.425h-1.758c.005-.317.081-.623.227-.916.147-.292.362-.551.645-.776.273-.23.61-.41 1.011-.542a4.317 4.317 0 0 1 1.384-.205c.464 0 .896.059 1.296.176.405.112.755.28 1.048.505.293.225.522.51.688.857.166.342.249.737.249 1.187v3.523c0 .356.024.678.073.966.054.284.13.528.227.733v.124h-1.787Zm-2.131-1.26c.229 0 .442-.029.637-.087.2-.059.381-.135.542-.227.161-.093.3-.198.418-.315.117-.117.207-.24.271-.367v-1.464h-1.128a3.92 3.92 0 0 0-.989.11 1.726 1.726 0 0 0-.667.3 1.085 1.085 0 0 0-.329.403 1.292 1.292 0 0 0-.103.527c0 .161.03.313.088.454a.97.97 0 0 0 .256.352c.113.097.252.175.418.234.166.054.361.08.586.08ZM142.948 55.833v-7.925h1.582l.11 1.128a3.284 3.284 0 0 1 .769-.769 2.894 2.894 0 0 1 1.648-.505c.406 0 .777.059 1.114.176.336.117.625.303.864.556.239.254.425.58.556.975.132.39.198.864.198 1.42v4.944h-1.75V50.92c0-.327-.037-.6-.11-.82a1.242 1.242 0 0 0-.322-.528 1.197 1.197 0 0 0-.513-.278c-.2-.059-.43-.088-.689-.088-.214 0-.415.03-.6.088a1.778 1.778 0 0 0-.835.52 2.189 2.189 0 0 0-.271.366v5.654h-1.751ZM133.467 51.798c0-.577.083-1.109.249-1.597.166-.493.408-.92.725-1.282a3.29 3.29 0 0 1 1.15-.85c.454-.204.972-.307 1.553-.307s1.099.103 1.553.308c.459.205.847.488 1.164.85.313.36.552.788.718 1.281.166.488.249 1.02.249 1.597v.154c0 .58-.083 1.115-.249 1.604a3.78 3.78 0 0 1-.718 1.274 3.265 3.265 0 0 1-1.157.85c-.454.205-.969.307-1.545.307-.581 0-1.101-.102-1.56-.308a3.278 3.278 0 0 1-1.158-.85 3.728 3.728 0 0 1-.725-1.273 4.955 4.955 0 0 1-.249-1.604v-.154Zm1.751.154c0 .356.036.693.11 1.01.078.318.197.596.359.835.156.24.356.43.6.572.244.136.535.205.872.205.327 0 .613-.069.857-.206.244-.141.444-.332.6-.57.157-.24.271-.518.345-.836.078-.317.117-.654.117-1.01v-.154a4.16 4.16 0 0 0-.117-.996 2.811 2.811 0 0 0-.345-.835 1.828 1.828 0 0 0-.608-.572c-.239-.141-.527-.212-.864-.212-.332 0-.62.07-.864.212a1.791 1.791 0 0 0-.593.572c-.162.239-.281.517-.359.835-.074.317-.11.649-.11.996v.154ZM131.596 51.952c0 .366-.027.715-.08 1.047-.054.332-.132.64-.235.923a3.571 3.571 0 0 1-.469.915 2.649 2.649 0 0 1-1.442 1.018 2.969 2.969 0 0 1-.879.125c-.323 0-.616-.04-.879-.117a2.34 2.34 0 0 1-.711-.345 3.747 3.747 0 0 1-.307-.249 4.044 4.044 0 0 1-.271-.3l-.081.864h-1.582v-11.25h1.751v4.102a2.412 2.412 0 0 1 .732-.615c.186-.103.388-.179.608-.227.225-.054.466-.081.725-.081.342 0 .654.046.938.14.288.087.546.214.776.38.195.137.369.305.52.505.156.196.293.41.41.645.156.327.274.69.352 1.091.083.4.124.825.124 1.275v.154Zm-1.75-.154c0-.225-.015-.442-.044-.652a4.306 4.306 0 0 0-.11-.6 2.552 2.552 0 0 0-.271-.609 1.439 1.439 0 0 0-.44-.468 1.319 1.319 0 0 0-.417-.198 1.947 1.947 0 0 0-.527-.066c-.24 0-.455.034-.645.102-.19.064-.356.157-.498.279-.103.083-.195.18-.278.293a2.046 2.046 0 0 0-.205.351v3.282c.068.146.149.28.241.402.098.118.208.223.33.315.137.098.293.176.469.235.18.053.381.08.6.08.2 0 .381-.024.542-.073.161-.054.305-.124.432-.212.171-.122.31-.276.418-.462.112-.19.198-.403.256-.637.049-.176.086-.366.11-.571.024-.205.037-.418.037-.637v-.154ZM115.875 47.908h4.204v6.475h2.329v1.45h-6.533v-1.45h2.439v-5.017h-2.439v-1.458Zm2.278-2.05c0-.142.024-.271.073-.388a.888.888 0 0 1 .212-.315.894.894 0 0 1 .315-.19c.127-.05.269-.074.425-.074.264 0 .476.068.637.205a.74.74 0 0 1 .286.513.763.763 0 0 1-.11.564.787.787 0 0 1-.469.315.761.761 0 0 1-.366.183.93.93 0 0 1-.469-.037.721.721 0 0 1-.402-.285.91.91 0 0 1-.132-.491ZM112.685 51.292h-4.511v4.541h-1.773V45.17h6.929v1.458h-5.156v3.215h4.511v1.45ZM26.011 42.5h56.667v35H26.011v-35Zm33.843 1.85c-16.94.056-31.847 14.485-31.95 31.364h31.95V44.35Zm1.94-.027v18.674h18.991c-.243-9.622-8.563-18.324-18.992-18.674Zm-12.677.01H27.876v20.865c3.935-10.11 10.943-16.998 21.24-20.866Zm20.669 31.353c6.062-.258 10.868-5.626 10.98-10.792h-10.98v10.792Zm11.046-31.354H69.926c4.985 2.32 8.526 5.83 10.906 10.488V44.332Zm-19.03 25.415c.188 2.9 3.186 5.829 6.054 5.939v-5.94h-6.053Zm19.02 5.976V70.99c-1.255 1.989-2.791 3.49-4.815 4.733h4.816Zm-16.059-7.891v-2.92c-1.555.378-2.82 1.667-2.904 2.92h2.904Zm-2.979 7.872h1.537a240.374 240.374 0 0 1-1.537-1.519v1.52ZM66.9 64.857c-.056.046-.103.092-.16.148v.994h1.031c.028-.046.056-.092.085-.147l-.956-.995Z" fill="#181D30"/></svg>