<svg width="240" height="120" viewBox="0 0 240 120" fill="none" xmlns="http://www.w3.org/2000/svg">
<path d="M198.56 51.0526V49.0804H197.877V48.7014H199.697V49.0804H199.015V51.0526H198.56ZM201.971 51.0526V49.2324L201.288 51.0526H201.137L200.454 49.2324V51.0526H200.074V48.7014H200.681L201.288 50.2936L201.895 48.7014H202.501V51.0526H201.971ZM78.6768 69.4025V44.0005H93.691V47.185H81.7861V54.9968H92.4778V58.1814H81.7861V66.1428H94.5251V69.3273H78.6768V69.4025ZM110.298 69.4025L105.142 62.6536L99.9849 69.4025H96.3453L103.397 60.3791L95.9662 51.0526H100.061L105.142 58.0279L110.298 51.0526H114.317L107.265 60.3791L113.937 69.4025H110.298ZM118.942 66.673V79.1841H115.833V60.4551C115.833 55.6782 119.472 50.5975 125.159 50.5975C130.922 50.5975 135.245 54.2371 135.245 60.2279C135.245 66.066 130.847 70.0855 125.842 70.0855C123.416 70.0855 120.155 69.0235 118.942 66.673ZM131.984 60.2272C131.984 56.1333 129.33 53.7069 124.629 53.934C122.354 54.01 118.866 55.6782 119.169 61.5163C119.245 63.4117 121.216 66.9761 125.538 66.9761C129.254 66.9761 131.984 64.8521 131.984 60.2272ZM137.9 51.0533H141.008V53.0255C142.525 51.2805 144.876 50.6743 147.378 50.6743V54.0108C146.999 53.934 143.283 53.4797 141.008 58.3325V69.4793H137.9V51.0533ZM148.211 60.2287C148.211 54.9208 152.001 50.5983 157.234 50.5983C163.755 50.5983 166.182 54.9208 166.182 60.4558V61.9729H151.622C151.85 65.4606 154.959 67.2808 157.84 67.2048C159.964 67.1281 161.405 66.5219 162.921 65.0055L164.968 67.1288C163.072 68.9483 160.646 70.1615 157.689 70.1615C152.153 70.0863 148.211 65.9916 148.211 60.2287ZM157.006 53.7076C154.049 53.7076 151.774 56.286 151.622 59.0915H162.921C162.921 56.3612 160.95 53.7076 157.006 53.7076ZM167.775 66.825L170.049 64.7776C169.973 64.7776 171.187 65.9908 171.338 66.0668C171.869 66.5219 172.4 66.825 173.082 66.9769C175.054 67.5079 178.617 67.356 178.921 64.6265C179.073 63.1102 177.935 62.276 176.646 61.745C174.978 61.1388 173.158 60.9109 171.49 60.1527C169.594 59.3186 168.381 57.8775 168.381 55.755C168.381 50.2192 176.267 49.3091 179.831 51.8875C179.983 52.0394 181.727 53.6317 181.651 53.6317L179.376 55.4511C178.238 54.0867 177.177 53.4038 174.751 53.4038C173.537 53.4038 171.869 53.9348 171.566 55.224C171.111 57.0434 173.158 57.7256 174.523 58.1054C176.343 58.5605 178.314 58.8636 179.907 59.8489C182.106 61.2148 182.637 64.1714 181.803 66.4459C180.893 68.9483 178.163 69.9343 175.736 70.0103C172.855 70.1615 170.353 69.2514 168.306 67.204C168.154 67.204 167.775 66.825 167.775 66.825ZM183.775 66.825L186.05 64.7784C185.974 64.7784 187.187 65.9908 187.339 66.0676C187.87 66.5219 188.401 66.8257 189.084 66.9769C191.055 67.5079 194.619 67.356 194.922 64.6265C195.074 63.1102 193.936 62.276 192.647 61.745C190.979 61.1388 189.159 60.9109 187.49 60.1527C185.595 59.3186 184.382 57.8783 184.382 55.755C184.382 50.2192 192.268 49.3091 195.832 51.8875C195.984 52.0394 197.728 53.6317 197.652 53.6317L195.377 55.4519C194.239 54.086 193.178 53.4045 190.752 53.4045C189.538 53.4045 187.87 53.9348 187.566 55.224C187.111 57.0441 189.159 57.7256 190.524 58.1054C192.344 58.5605 194.315 58.8636 195.908 59.8496C198.107 61.214 198.637 64.1714 197.803 66.4467C196.894 68.9483 194.163 69.9343 191.737 70.0103C188.856 70.1622 186.353 69.2521 184.306 67.2048C184.155 67.2048 183.775 66.825 183.775 66.825Z" fill="#E43225"/>
<path d="M57.5942 69.4024L55.3197 63.3364H43.0358L40.7605 69.4024H37.5L47.3576 44.0004H50.9212L60.7035 69.4024H57.5942ZM49.0258 47.64L44.4001 60.227H54.0306L49.0258 47.64ZM62.7509 69.4024V44.0004H65.9354V69.4024H62.7509ZM70.713 69.4024V51.4315H73.8976V69.4024H70.713ZM76.9318 45.5926V45.2895C74.5054 45.2136 72.5332 43.2422 72.458 40.8158H72.003C71.9262 43.2422 69.9557 45.2136 67.5293 45.2895V45.5926C69.9557 45.6694 71.9262 47.64 72.003 50.0664H72.458C72.5332 47.64 74.5054 45.6694 76.9318 45.5926Z" fill="#FF9900"/>
</svg>
