<svg width="240" height="120" viewBox="0 0 240 120" fill="none" xmlns="http://www.w3.org/2000/svg">
<path d="M81.7725 50.9158H89.5363C93.8362 50.9158 96.0687 52.6787 96.0687 55.9897V56.1549C96.1307 57.1251 95.8418 58.0853 95.2548 58.8603C94.6676 59.6348 93.8225 60.1736 92.8725 60.3791C94.0106 60.4793 95.0632 61.0245 95.8018 61.8962C96.5404 62.7678 96.9054 63.8955 96.8175 65.0346V65.1486C96.8175 68.7648 94.445 70.6669 89.8912 70.6669H81.7725V50.9158ZM88.8128 59.0223C90.9696 59.0223 91.8193 58.2483 91.8193 56.4845V56.3706C91.8193 54.7216 90.8809 53.9728 88.7875 53.9728H86.1358V59.0475L88.8128 59.0223ZM89.1937 67.5594C91.401 67.5594 92.4029 66.5574 92.4029 64.7685V64.6545C92.4029 62.8273 91.401 61.9019 88.978 61.9019H86.1358V67.5716L89.1937 67.5594ZM97.9863 66.6453C97.9863 63.2709 101.069 62.0028 105.496 62.0028H107.12V61.4315C107.12 59.719 106.6 58.7806 104.773 58.7806C104.477 58.7455 104.177 58.7713 103.892 58.8564C103.607 58.9415 103.342 59.0841 103.114 59.2754C102.886 59.467 102.699 59.7029 102.565 59.9689C102.432 60.2353 102.355 60.5261 102.337 60.8235H98.5316C98.7856 57.3977 101.488 55.8749 105.027 55.8749C108.565 55.8749 111.065 57.309 111.065 61.2288V70.6416H107.17V68.9031C106.682 69.5918 106.023 70.1421 105.258 70.5C104.493 70.858 103.649 71.0117 102.807 70.946C100.194 70.946 97.9863 69.6771 97.9863 66.6453ZM107.12 65.593V64.3241H105.572C103.251 64.3241 101.906 64.8311 101.906 66.367C101.906 67.4194 102.54 68.1169 103.999 68.1169C105.762 68.1682 107.12 67.1907 107.12 65.593ZM112.753 66.113H116.482C116.648 67.3819 117.282 68.1682 119.019 68.1682C120.567 68.1682 121.29 67.5846 121.29 66.5827C121.29 65.5808 120.428 65.1746 118.36 64.8824C114.554 64.2988 113.032 63.1952 113.032 60.3791C113.032 57.563 115.798 55.8757 118.741 55.8757C121.95 55.8757 124.348 57.0429 124.703 60.3538H121.037C120.821 59.1615 120.149 58.6161 118.778 58.6161C117.408 58.6161 116.736 59.2249 116.736 60.0999C116.736 60.9757 117.422 61.3688 119.514 61.6732C123.13 62.1933 125.121 63.1065 125.121 66.2018C125.121 69.2971 122.863 70.9468 119.045 70.9468C115.226 70.9468 112.892 69.2344 112.753 66.113ZM126.151 63.6005V63.3848C126.102 62.3935 126.261 61.4029 126.615 60.4759C126.97 59.549 127.514 58.7058 128.212 58C128.909 57.2938 129.746 56.7403 130.669 56.3746C131.591 56.0087 132.58 55.8385 133.572 55.8749C137.301 55.8749 140.612 58.057 140.612 63.2204V64.3241H130.248C130.35 66.721 131.656 68.1291 133.825 68.1291C135.678 68.1291 136.591 67.3298 136.845 66.1122H140.65C140.181 69.2328 137.694 70.9713 133.749 70.9713C129.322 70.946 126.151 68.2186 126.151 63.6005ZM136.718 61.8628C136.591 59.6816 135.475 58.691 133.572 58.691C132.715 58.6871 131.89 59.0153 131.27 59.6067C130.651 60.1982 130.284 61.0069 130.248 61.8628H136.718ZM141.665 63.6005V63.3848C141.617 62.3911 141.776 61.3982 142.133 60.4694C142.489 59.5405 143.034 58.6959 143.735 57.9894C144.435 57.283 145.275 56.7303 146.201 56.3665C147.127 56.0022 148.119 55.8348 149.113 55.8749C152.461 55.8749 155.544 57.3334 155.912 61.4819H152.106C152.08 61.1259 151.984 60.7787 151.822 60.4605C151.66 60.1426 151.435 59.8606 151.162 59.6311C150.889 59.4015 150.572 59.2291 150.231 59.124C149.889 59.0197 149.531 58.9846 149.175 59.0207C147.108 59.0207 145.725 60.5687 145.725 63.3344V63.5492C145.725 66.4549 146.994 67.9386 149.265 67.9386C149.651 67.961 150.038 67.9063 150.403 67.7776C150.768 67.6489 151.103 67.4488 151.39 67.189C151.677 66.9294 151.91 66.6152 152.074 66.2647C152.238 65.9142 152.331 65.5345 152.347 65.1478H155.963C155.747 68.5727 153.26 70.9452 149.061 70.9452C144.862 70.9452 141.665 68.3195 141.665 63.6005ZM156.885 66.6445C156.885 63.2701 159.968 62.002 164.382 62.002H166.018V61.4306C166.018 59.7182 165.486 58.7797 163.672 58.7797C163.374 58.7413 163.072 58.7643 162.783 58.8473C162.495 58.9307 162.227 59.0727 161.996 59.2644C161.765 59.4561 161.576 59.6935 161.441 59.9615C161.306 60.2296 161.228 60.5224 161.211 60.8218H157.406C157.659 57.3969 160.361 55.8749 163.888 55.8749C167.414 55.8749 169.939 57.3074 169.939 61.228V70.6408H166.044V68.9031C165.556 69.5915 164.897 70.1415 164.132 70.4992C163.367 70.8573 162.522 71.011 161.68 70.9452C159.143 70.9452 156.885 69.6763 156.885 66.6445ZM166.018 65.5921V64.3241H164.496C162.175 64.3241 160.817 64.8311 160.817 66.367C160.817 67.4194 161.465 68.1169 162.923 68.1169C164.712 68.1682 166.07 67.1907 166.07 65.593L166.018 65.5921ZM172.757 56.1541H176.753V58.3614C177.189 57.577 177.83 56.9263 178.608 56.4792C179.386 56.0322 180.271 55.8058 181.168 55.8244C182.024 55.7561 182.879 55.9659 183.606 56.4227C184.333 56.8803 184.892 57.5603 185.201 58.3614C185.734 57.5657 186.458 56.9164 187.307 56.4732C188.156 56.03 189.103 55.8069 190.06 55.8244C192.736 55.8244 194.805 57.5117 194.805 61.3427V70.5912H190.834V61.8376C190.834 59.986 190.009 59.1615 188.564 59.1615C188.179 59.1452 187.795 59.2119 187.438 59.357C187.082 59.502 186.76 59.7221 186.496 60.0022C186.233 60.283 186.032 60.6167 185.91 60.9822C185.788 61.347 185.745 61.734 185.785 62.1168V70.6416H181.802V61.8376C181.802 59.986 180.952 59.1615 179.544 59.1615C179.158 59.1431 178.773 59.208 178.415 59.3519C178.057 59.4962 177.734 59.7163 177.469 59.9972C177.203 60.278 177.002 60.6129 176.878 60.9789C176.755 61.3448 176.713 61.7329 176.753 62.1168V70.6416H172.757V56.1541ZM197.543 56.1541H201.553V58.4249C202.03 57.6309 202.705 56.974 203.512 56.5179C204.319 56.0624 205.23 55.8235 206.157 55.8244C209.697 55.8244 212.5 58.4501 212.5 63.2196V63.4475C212.5 68.2178 209.798 70.8948 206.157 70.8948C205.231 70.933 204.312 70.7168 203.5 70.2695C202.689 69.8223 202.015 69.1611 201.553 68.3578V75.5633H197.543V56.1541ZM208.39 63.2579C208.39 60.3278 206.956 58.8945 204.939 58.8945C202.923 58.8945 201.413 60.353 201.413 63.2579V63.4735C201.413 66.3662 202.796 67.7742 204.978 67.7742C207.16 67.7742 208.39 66.3027 208.39 63.524V63.2579Z" fill="#1D2D35"/>
<path fill-rule="evenodd" clip-rule="evenodd" d="M52.1169 44.021C40.8606 44.021 34.9899 53.5551 31.7025 62.8743C31.5117 63.4153 31.1138 63.8583 30.5963 64.1058C30.3401 64.2284 30.0623 64.2994 29.7787 64.3146C29.495 64.3298 29.2112 64.289 28.9433 64.1945C28.6755 64.1 28.4289 63.9537 28.2176 63.7639C28.0063 63.5741 27.8344 63.3445 27.7118 63.0883C27.4642 62.5709 27.4324 61.9763 27.6232 61.4353C30.9586 51.9802 37.7734 39.6951 52.1169 39.6951C59.613 39.6951 64.9799 44.655 68.4504 50.6136C71.9299 56.5877 73.7856 63.9853 74.2031 69.9578C74.2331 70.387 74.1345 70.8154 73.9198 71.1884C71.9095 74.6776 68.566 76.9509 64.7553 78.3434C60.9527 79.7328 56.5486 80.3001 52.134 80.3017C48.3803 80.3602 44.6581 79.6082 41.2214 78.0971C37.7848 76.586 34.7145 74.3514 32.2201 71.5457C31.9597 71.2524 31.7838 70.8939 31.7112 70.5084C31.6387 70.1229 31.6722 69.725 31.8083 69.3571L31.8238 69.3164C31.8829 69.1602 31.9431 69.0045 32.0044 68.8492C32.1748 68.4192 32.3512 67.9916 32.5335 67.5665C33.0993 66.2381 33.7247 64.9359 34.4079 63.6638C35.1746 62.2501 36.1179 60.7305 37.1785 59.5332C38.1454 58.4426 39.6487 57.1127 41.5727 57.0997H41.5874C42.9466 57.0997 44.0633 57.7223 44.8674 58.3205C45.6781 58.9236 46.4139 59.6903 47.0031 60.3146L47.2009 60.523C47.7495 61.1057 48.1695 61.5509 48.5683 61.8846L48.692 61.9839C48.8222 61.8512 48.9769 61.6779 49.1559 61.4565C49.7891 60.6703 50.5013 59.5634 51.1907 58.3783C51.8044 57.3152 52.3879 56.235 52.9406 55.139C53.1652 54.6954 53.3467 54.3259 53.4713 54.0695L53.6129 53.774L53.6487 53.6983L53.6593 53.6764C53.9109 53.1703 54.3505 52.7828 54.8841 52.5968C55.4178 52.4107 56.003 52.4409 56.5147 52.6808C57.0264 52.9207 57.4239 53.3513 57.6222 53.8805C57.8205 54.4097 57.8038 54.9955 57.5758 55.5125L57.5717 55.5223L57.5603 55.5467L57.5188 55.6338L57.3642 55.9561C56.6064 57.5159 55.7948 59.0488 54.9306 60.5523C54.203 61.8032 53.3614 63.1323 52.5214 64.1725C52.1063 64.6885 51.6343 65.2045 51.1231 65.6107C50.6722 65.9696 49.8762 66.4995 48.8564 66.4995C47.5078 66.4995 46.4448 65.7466 45.7945 65.2037C45.1824 64.6918 44.5712 64.0415 44.0568 63.4953L43.859 63.2854C43.2502 62.6407 42.7521 62.1386 42.2841 61.7902C41.8747 61.485 41.6655 61.4345 41.6045 61.4272L41.5963 61.4296C41.5312 61.4532 41.1332 61.5932 40.4162 62.4023C39.6731 63.2406 38.9121 64.4321 38.2097 65.7271C37.5894 66.8811 37.0221 68.0627 36.5094 69.2684L36.3572 69.6289C38.2641 71.5278 40.5059 73.0574 42.9694 74.1404C45.8392 75.4007 48.9472 76.0267 52.0811 75.9758H52.1161C56.2084 75.9758 60.081 75.4459 63.2699 74.2804C66.204 73.2085 68.4423 71.6458 69.8332 69.572C69.362 64.2572 67.6682 57.8664 64.7121 52.7908C61.6176 47.4776 57.4203 44.021 52.1169 44.021ZM48.3363 62.2916C48.3363 62.2916 48.3453 62.2834 48.364 62.2753L48.3363 62.2916Z" fill="#1D2D35"/>
</svg>
