<svg width="240" height="120" viewBox="0 0 240 120" fill="none" xmlns="http://www.w3.org/2000/svg">
<path fill-rule="evenodd" clip-rule="evenodd" d="M151.923 73.8471C143.279 80.231 130.72 83.6214 119.92 83.6214C104.787 83.6214 91.1499 78.0249 80.8502 68.7233C80.0352 67.9879 80.7712 66.9892 81.7436 67.5673C92.8839 74.0308 106.625 77.9459 120.84 77.9459C130.431 77.9459 140.967 75.9492 150.662 71.8497C152.107 71.1934 153.342 72.7957 151.923 73.8471Z" fill="#FF9900"/>
<path fill-rule="evenodd" clip-rule="evenodd" d="M155.522 69.7475C154.419 68.3288 148.218 69.0642 145.406 69.4058C144.566 69.5112 144.434 68.7751 145.196 68.2235C150.136 64.7554 158.255 65.754 159.2 66.9101C160.146 68.0924 158.938 76.211 154.314 80.0998C153.604 80.7042 152.921 80.3895 153.237 79.6008C154.287 76.9997 156.626 71.1399 155.522 69.7475Z" fill="#FF9900"/>
<path d="M102.756 53.5367C102.756 54.5091 102.86 55.2971 103.045 55.8751C103.277 56.5259 103.558 57.1584 103.885 57.7672C104.016 57.9772 104.069 58.1872 104.069 58.3715C104.069 58.6342 103.912 58.8969 103.57 59.1595L101.914 60.2629C101.678 60.4209 101.442 60.4999 101.232 60.4999C100.969 60.4999 100.706 60.3682 100.443 60.1312C100.089 59.7508 99.7727 59.3375 99.4976 58.8969C99.2342 58.4498 98.9716 57.9508 98.6826 57.3465C96.6329 59.7639 94.058 60.9726 90.9577 60.9726C88.7509 60.9726 86.9906 60.3419 85.7029 59.0805C84.4158 57.8198 83.7588 56.1378 83.7588 54.0357C83.7588 51.8026 84.5468 49.9896 86.1499 48.6236C87.7529 47.2575 89.8806 46.5742 92.587 46.5742C93.4804 46.5742 94.4001 46.6532 95.3725 46.7842C96.3442 46.9158 97.3429 47.1258 98.3936 47.3622V45.4438C98.3936 43.4471 97.9735 42.0547 97.1585 41.2403C96.3178 40.4253 94.8991 40.0316 92.8761 40.0316C91.9564 40.0316 91.0103 40.137 90.0386 40.3733C89.0726 40.6033 88.1242 40.9018 87.2006 41.2667C86.9021 41.401 86.5948 41.5149 86.2809 41.6077C86.0965 41.6604 85.9655 41.6867 85.8608 41.6867C85.4928 41.6867 85.3092 41.424 85.3092 40.8723V39.5846C85.3092 39.1646 85.3618 38.8493 85.4928 38.6649C85.6245 38.4806 85.8608 38.2976 86.2289 38.1133C87.1483 37.6406 88.2517 37.2464 89.539 36.9309C90.8267 36.5892 92.1927 36.4319 93.6378 36.4319C96.7648 36.4319 99.0506 37.1409 100.522 38.5603C101.967 39.979 102.703 42.1337 102.703 45.0238V53.5367H102.756ZM92.088 57.5308C92.9551 57.5308 93.8484 57.3728 94.7938 57.0575C95.7392 56.7421 96.5805 56.1641 97.2902 55.3761C97.7109 54.8764 98.0262 54.3247 98.1835 53.694C98.3409 53.064 98.4462 52.3017 98.4462 51.4083V50.3049C97.6495 50.1106 96.8424 49.9616 96.0288 49.8586C95.2098 49.7544 94.385 49.7016 93.5594 49.7006C91.799 49.7006 90.5113 50.0423 89.6443 50.7513C88.7773 51.461 88.3566 52.4597 88.3566 53.773C88.3566 55.0081 88.6719 55.9278 89.329 56.5578C89.9596 57.2155 90.8793 57.5302 92.088 57.5302M113.186 60.3676C112.714 60.3676 112.398 60.2886 112.188 60.1042C111.978 59.9469 111.794 59.5795 111.636 59.0799L105.461 38.7696C105.304 38.2443 105.225 37.9026 105.225 37.7183C105.225 37.2982 105.435 37.0619 105.856 37.0619H108.431C108.93 37.0619 109.271 37.1409 109.456 37.3246C109.666 37.4826 109.824 37.8499 109.981 38.3489L114.395 55.7434L118.494 38.3489C118.625 37.8236 118.783 37.4819 118.993 37.3246C119.203 37.1666 119.571 37.0612 120.044 37.0612H122.146C122.645 37.0612 122.987 37.1402 123.197 37.3246C123.408 37.4826 123.591 37.8499 123.697 38.3489L127.848 55.9528L132.393 38.3489C132.551 37.8236 132.735 37.4819 132.919 37.3246C133.129 37.1666 133.471 37.0612 133.944 37.0612H136.387C136.807 37.0612 137.044 37.2719 137.044 37.7189C137.044 37.8499 137.018 37.9816 136.992 38.1389C136.965 38.2969 136.913 38.5069 136.807 38.7959L130.475 59.1062C130.317 59.6316 130.134 59.9732 129.924 60.1312C129.713 60.2892 129.371 60.3939 128.925 60.3939H126.666C126.166 60.3939 125.824 60.3149 125.614 60.1306C125.404 59.9469 125.221 59.6059 125.115 59.0799L121.043 42.133L116.996 59.0535C116.865 59.5795 116.707 59.9206 116.497 60.1049C116.287 60.2892 115.919 60.3676 115.446 60.3676H113.186ZM146.95 61.0766C145.584 61.0766 144.217 60.9193 142.904 60.6039C141.59 60.2886 140.565 59.9469 139.882 59.5532C139.461 59.3162 139.172 59.0535 139.067 58.8172C138.963 58.5809 138.909 58.3182 138.909 58.0818V56.7415C138.909 56.1898 139.119 55.9271 139.514 55.9271C139.672 55.9271 139.83 55.9534 139.987 56.0061C140.144 56.0588 140.381 56.1641 140.643 56.2688C141.572 56.6771 142.541 56.9854 143.534 57.1885C144.585 57.3985 145.609 57.5038 146.661 57.5038C148.316 57.5038 149.603 57.2142 150.497 56.6368C151.39 56.0581 151.863 55.2174 151.863 54.1404C151.863 53.4044 151.626 52.8 151.154 52.301C150.68 51.802 149.787 51.355 148.5 50.935L144.69 49.7526C142.772 49.1482 141.353 48.2549 140.486 47.0725C139.619 45.9165 139.172 44.6288 139.172 43.2627C139.172 42.1589 139.409 41.1868 139.882 40.3463C140.351 39.5015 140.996 38.7668 141.773 38.1916C142.562 37.5872 143.455 37.1402 144.506 36.8249C145.557 36.5102 146.661 36.3785 147.817 36.3785C148.395 36.3785 148.999 36.4049 149.577 36.4839C150.181 36.5629 150.733 36.6675 151.285 36.7729C151.81 36.9045 152.31 37.0356 152.782 37.1929C153.256 37.3509 153.623 37.5087 153.886 37.6662C154.254 37.8763 154.517 38.0863 154.675 38.3226C154.832 38.5333 154.911 38.8223 154.911 39.1896V40.4247C154.911 40.9763 154.701 41.2654 154.307 41.2654C154.096 41.2654 153.755 41.16 153.308 40.9507C151.81 40.2673 150.128 39.9256 148.264 39.9256C146.766 39.9256 145.584 40.1626 144.769 40.661C143.954 41.1607 143.534 41.9224 143.534 43.0001C143.534 43.7354 143.797 44.3661 144.322 44.8651C144.848 45.3648 145.82 45.8638 147.212 46.3102L150.943 47.4925C152.835 48.0969 154.201 48.9382 155.016 50.0153C155.831 51.0923 156.225 52.3273 156.225 53.6934C156.225 54.8237 155.988 55.8481 155.542 56.7415C155.068 57.6348 154.438 58.4229 153.623 59.0535C152.809 59.7106 151.836 60.1839 150.707 60.5249C149.524 60.8936 148.289 61.0766 146.95 61.0766Z" fill="#221F1F"/>
</svg>
