<svg width="240" height="120" viewBox="0 0 240 120" fill="none" xmlns="http://www.w3.org/2000/svg">
<path fill-rule="evenodd" clip-rule="evenodd" d="M69.2133 48.272C68.2816 48.0691 67.2624 47.9727 66.1322 47.9727H55V71.5841H66.4455C67.5027 71.5841 68.5366 71.4509 69.5304 71.187C70.5363 70.9226 71.435 70.516 72.217 69.9623C73.0008 69.4087 73.6409 68.6759 74.0842 67.825C74.543 66.9582 74.7724 65.926 74.7724 64.7286C74.7724 63.2521 74.421 61.9925 73.7043 60.9384C72.9908 59.8932 71.9139 59.1581 70.4602 58.7401C71.5283 58.2353 72.3261 57.5858 72.8703 56.793C73.4094 55.9981 73.679 55.0064 73.679 53.8178C73.679 52.7187 73.4988 51.7882 73.1399 51.0468C72.7701 50.2933 72.2557 49.6952 71.5987 49.2456C70.9302 48.7953 70.1399 48.4686 69.2133 48.272ZM67.2047 67.4152C66.748 67.5167 66.2609 67.563 65.7472 67.563H60.1995V61.0608H65.8518C66.9706 61.0608 67.8801 61.3177 68.5626 61.8352C69.2437 62.3604 69.5862 63.2242 69.5862 64.4419C69.5862 65.0622 69.4847 65.5759 69.2754 65.9723C69.0789 66.3535 68.7881 66.6779 68.4306 66.9148C68.0824 67.152 67.6702 67.3144 67.2047 67.4152ZM67.7482 56.8495C67.1438 57.2934 66.382 57.511 65.4599 57.511H60.1995V51.9931H65.0641C65.5227 51.9931 65.9723 52.0267 66.4004 52.1098C66.8362 52.1853 67.2123 52.3242 67.5446 52.5252C67.8801 52.718 68.1452 52.9946 68.3463 53.3466C68.5397 53.6986 68.6361 54.152 68.6361 54.7019C68.6361 55.6913 68.3463 56.4131 67.7482 56.8495ZM85.2202 68.5163C83.9029 68.5163 82.8868 68.1712 82.1841 67.4844C81.4776 66.7975 81.0215 65.517 81.0215 64.166H93.3575C93.4471 62.8405 93.3385 61.5716 93.0315 60.3593C92.7213 59.1448 92.226 58.0615 91.529 57.1146C90.8301 56.1611 89.917 55.385 88.8633 54.8491C87.7774 54.2821 86.5102 54.0036 85.0629 54.0036C83.7538 54.0036 82.5703 54.2364 81.4985 54.6994C80.4571 55.1438 79.515 55.7917 78.7275 56.6053C77.9531 57.407 77.3639 58.3628 76.937 59.4708C76.5191 60.5743 76.306 61.7692 76.306 63.0466C76.306 64.369 76.5115 65.5899 76.9193 66.6916C77.3315 67.7996 77.9112 68.7427 78.6558 69.5412C79.4207 70.334 80.3289 70.9441 81.4167 71.3792C82.505 71.8086 83.7164 72.0262 85.0635 72.0262C86.9961 72.0262 88.654 71.5835 90.0144 70.6955C91.3894 69.8108 92.3985 68.3425 93.0626 66.2838H88.9273C88.7669 66.8133 88.3527 67.3226 87.6734 67.7996C86.9859 68.277 86.1682 68.5158 85.2202 68.5163ZM84.9221 57.5497C86.0758 57.5497 87.0214 57.8833 87.5796 58.501C88.1396 59.1238 88.5493 60.0092 88.6616 61.206H81.0215C81.052 60.8238 81.1237 60.4459 81.2353 60.079C81.3558 59.6522 81.5619 59.2532 81.8651 58.8746C82.1695 58.5029 82.5678 58.1871 83.0536 57.9327C83.5515 57.6752 84.1712 57.5497 84.9221 57.5497Z" fill="#030404"/>
<path d="M100.025 47.9727V56.8755H100.132C100.728 55.8841 101.482 55.1643 102.409 54.7178C103.334 54.2692 104.237 54.0451 105.117 54.0455C106.372 54.0455 107.398 54.2104 108.201 54.551C109.005 54.8966 109.64 55.3647 110.105 55.9729C110.562 56.5801 110.885 57.3196 111.073 58.1915C111.259 59.061 111.356 60.0207 111.356 61.0786V71.5841H106.637V61.931C106.637 60.523 106.417 59.4644 105.979 58.7725C105.541 58.0792 104.763 57.7317 103.64 57.7317C102.37 57.7317 101.453 58.1173 100.884 58.8759C100.304 59.6357 100.025 60.8858 100.025 62.6248V71.5841H95.3066V47.9727H100.025Z" fill="#030404"/>
<path fill-rule="evenodd" clip-rule="evenodd" d="M116.557 55.2338C115.815 55.6682 115.184 56.2692 114.714 56.9894C114.221 57.7162 113.948 58.6327 113.88 59.742H118.591C118.685 58.8122 118.99 58.1469 119.519 57.7422C120.035 57.3509 120.763 57.1454 121.681 57.1454C122.094 57.1454 122.482 57.1758 122.848 57.2285C123.183 57.2768 123.505 57.3901 123.797 57.5621C124.072 57.7319 124.297 57.9707 124.45 58.2547C124.613 58.5559 124.702 58.9587 124.702 59.4648C124.723 59.9551 124.577 60.3223 124.274 60.576C123.963 60.8278 123.542 61.0263 123.016 61.1576C122.482 61.2908 121.886 61.3872 121.195 61.4557C120.498 61.525 119.803 61.6132 119.111 61.7202C118.407 61.8318 117.708 61.9817 117.02 62.1692C116.358 62.3385 115.731 62.6241 115.168 63.0127C114.621 63.3869 114.185 63.8912 113.849 64.5197C113.502 65.1472 113.329 65.948 113.329 66.9222C113.329 67.805 113.481 68.568 113.778 69.2111C114.06 69.8303 114.483 70.3747 115.014 70.8005C115.542 71.2191 116.161 71.5268 116.858 71.7265C117.566 71.9244 118.323 72.0272 119.136 72.0272C120.187 72.0277 121.233 71.8725 122.24 71.5667C123.247 71.262 124.158 70.7015 124.884 69.9399C124.905 70.2278 124.944 70.5086 125 70.7822C125.053 71.0612 125.171 71.3802 125.311 71.5845L130.109 71.5959C129.881 71.2471 129.639 70.713 129.546 70.0027C129.46 69.2672 129.416 68.5272 129.416 67.7866V58.8756C129.416 57.8354 129.181 56.9976 128.716 56.378C128.256 55.7412 127.664 55.2554 126.937 54.8983C126.209 54.544 125.406 54.3067 124.528 54.1867C123.662 54.066 122.788 54.0052 121.914 54.0046C120.962 54.0046 120.024 54.0953 119.086 54.2888C118.145 54.4752 117.306 54.7879 116.557 55.2338ZM123.008 63.8912C123.342 63.8214 123.665 63.7402 123.957 63.6425C124.232 63.5574 124.486 63.4147 124.702 63.2239V64.982C124.702 65.2484 124.673 65.6021 124.613 66.0431C124.564 66.4808 124.419 66.9146 124.177 67.3446C123.94 67.7746 123.559 68.145 123.055 68.4532C122.546 68.7608 121.834 68.9143 120.912 68.9143C120.54 68.9143 120.176 68.889 119.825 68.8186C119.498 68.7627 119.185 68.645 118.903 68.4716C118.638 68.3055 118.422 68.0717 118.277 67.7943C118.127 67.5057 118.047 67.1524 118.047 66.7351C118.047 66.2975 118.127 65.9271 118.277 65.6417C118.433 65.3584 118.637 65.122 118.891 64.9326C119.158 64.7347 119.457 64.5839 119.775 64.4867C120.115 64.3748 120.462 64.2852 120.813 64.2184C121.184 64.1537 121.557 64.0999 121.931 64.0573C122.292 64.0132 122.651 63.9573 123.008 63.8912Z" fill="#030404"/>
<path d="M136.463 54.4923V56.8751H136.568C137.161 55.8844 137.929 55.1646 138.881 54.7181C139.79 54.2782 140.785 54.0484 141.794 54.0458C143.054 54.0458 144.088 54.2107 144.888 54.5513C145.701 54.8963 146.333 55.3644 146.791 55.9732C147.261 56.5789 147.584 57.3197 147.772 58.1912C147.962 59.0607 148.056 60.0203 148.056 61.0782V71.5837H143.336V61.9306C143.336 60.5226 143.114 59.4641 142.674 58.7721C142.226 58.0789 141.456 57.6356 140.325 57.6356C139.049 57.6356 138.117 58.117 137.546 58.8755C136.97 59.636 136.686 60.886 136.686 62.6251V71.5837H132.016V54.4923H136.463ZM156.628 58.0618C157.129 57.7155 157.752 57.5499 158.507 57.5499C160.515 57.5491 161.671 58.5239 161.976 60.4744H166.581C166.509 59.3778 166.247 58.4189 165.789 57.6172C165.335 56.8272 164.719 56.142 163.981 55.6066C163.244 55.0637 162.404 54.6604 161.47 54.3984C160.515 54.136 159.529 54.0033 158.539 54.0039C157.152 54.0043 155.917 54.2363 154.835 54.6997C153.749 55.1635 152.831 55.8102 152.08 56.6398C151.322 57.4643 150.754 58.448 150.37 59.5846C149.983 60.7237 149.789 61.9552 149.789 63.279C149.789 64.5581 149.998 65.7342 150.416 66.8073C150.842 67.8773 151.425 68.7988 152.176 69.5732C152.928 70.3457 153.84 70.9444 154.914 71.3795C155.99 71.8089 157.156 72.0264 158.44 72.0264C160.712 72.0264 162.578 71.4252 164.035 70.2385C165.487 69.0445 166.368 67.3134 166.68 65.0454H162.145C161.987 66.1039 161.613 66.9475 161.009 67.576C160.402 68.2007 159.536 68.5166 158.405 68.5166C157.677 68.5174 157.061 68.3512 156.557 68.0181C156.06 67.6942 155.645 67.2585 155.346 66.7458C155.048 66.2213 154.837 65.6447 154.7 65.0054C154.572 64.3831 154.505 63.7496 154.501 63.1141C154.501 62.4723 154.572 61.8279 154.7 61.1753C154.837 60.522 155.059 59.9258 155.379 59.3867C155.69 58.8562 156.117 58.4032 156.628 58.0618ZM89.6377 49.5566H80.0664V51.8862H89.6377V49.5566Z" fill="#030404"/>
<path fill-rule="evenodd" clip-rule="evenodd" d="M176.836 68.5173C175.509 68.5173 174.444 68.1723 173.738 67.4854C173.031 66.7985 172.58 65.518 172.58 64.167H184.971C185.059 62.8885 184.947 61.6041 184.638 60.3603C184.33 59.1458 183.829 58.0625 183.133 57.1156C182.44 56.1674 181.549 55.4088 180.465 54.8501C179.39 54.2831 178.117 54.0046 176.673 54.0046C175.37 54.0046 174.178 54.2374 173.103 54.7004C172.065 55.1471 171.126 55.7948 170.339 56.6063C169.57 57.408 168.968 58.3638 168.545 59.4718C168.127 60.5754 167.917 61.7703 167.917 63.0476C167.917 64.37 168.12 65.5909 168.528 66.6926C168.939 67.8006 169.516 68.7437 170.269 69.5422C171.03 70.335 171.941 70.9452 173.026 71.3802C174.106 71.8096 175.322 72.0272 176.673 72.0272C178.612 72.0276 180.264 71.584 181.629 70.6965C182.995 69.8118 184.011 68.3435 184.672 66.2848H180.536C180.385 66.8144 179.962 67.3237 179.28 67.8006C178.598 68.2775 177.781 68.5173 176.836 68.5173ZM176.536 57.5507C177.674 57.5507 178.627 57.8843 179.192 58.502C179.753 59.1249 180.153 60.0102 180.278 61.2071H172.58C172.6 60.8734 172.678 60.4961 172.789 60.08C172.922 59.6411 173.139 59.2321 173.427 58.8756C173.725 58.5039 174.171 58.1881 174.657 57.9338C175.163 57.6762 175.786 57.5507 176.536 57.5507Z" fill="#030404"/>
</svg>
