<svg width="240" height="120" viewBox="0 0 240 120" fill="none" xmlns="http://www.w3.org/2000/svg">
<path fill-rule="evenodd" clip-rule="evenodd" d="M102.36 71.0734C100.784 71.0734 99.8747 69.6264 99.7746 68.4898V68.4873C98.2812 70.4651 95.2653 71.5391 92.4985 71.5391C86.2093 71.5391 81.1113 66.4363 81.1113 60.1414C81.1113 53.8465 86.2093 48.7452 92.4985 48.7452C95.2653 48.7452 98.0247 49.6409 99.7746 51.7978V50.1498H99.7786C99.7877 49.9842 99.8597 49.8283 99.9799 49.7139C100.1 49.5995 100.259 49.5352 100.425 49.5342H103.281C103.627 49.5342 103.909 49.8078 103.928 50.1498H103.931V70.422C103.931 70.5944 103.863 70.7599 103.741 70.882C103.619 71.0041 103.454 71.0729 103.281 71.0734H102.36ZM85.2672 60.1414C85.2672 64.2337 88.5103 67.5501 92.5099 67.5501C96.5094 67.5501 99.7518 64.2337 99.7518 60.1414C99.7518 56.0506 96.5094 52.7334 92.5099 52.7334C88.5103 52.7334 85.2672 56.0506 85.2672 60.1414Z" fill="#0D0E10"/>
<path d="M110.759 65.5862C112.666 66.9085 114.747 67.5501 116.747 67.5501C118.653 67.5501 120.622 66.5617 120.622 64.8412C120.622 63.0987 118.154 62.4717 115.784 61.8708C115.029 61.6795 114.284 61.4906 113.633 61.2691C110.935 60.3522 108.612 58.4559 108.612 55.3846C108.612 50.6864 112.796 48.7452 116.701 48.7452C119.175 48.7452 121.728 49.5619 123.383 50.7312C123.953 51.1627 123.606 51.6594 123.606 51.6594L122.026 53.9173C121.849 54.1722 121.538 54.392 121.092 54.116L120.984 54.0476C120.426 53.6934 118.918 52.7342 116.701 52.7342C114.319 52.7342 112.883 53.8351 112.883 55.1997C112.883 56.8364 114.748 57.351 116.933 57.9087C120.74 58.9355 124.894 60.1707 124.894 64.8412C124.894 68.9816 121.024 71.5399 116.747 71.5399C113.506 71.5399 110.747 70.6149 108.432 68.9156C107.95 68.4328 108.287 67.9849 108.287 67.9849L109.86 65.7376C110.179 65.3183 110.583 65.4641 110.759 65.5862Z" fill="#0D0E10"/>
<path fill-rule="evenodd" clip-rule="evenodd" d="M198.343 68.4895C198.443 69.6262 199.353 71.0731 200.928 71.0731H201.85C202.022 71.0726 202.187 71.0039 202.309 70.882C202.431 70.7601 202.499 70.5948 202.5 70.4225V50.1503H202.496C202.486 49.9848 202.415 49.829 202.295 49.7147C202.175 49.6003 202.016 49.536 201.85 49.5348H198.993C198.828 49.5358 198.668 49.6 198.548 49.7144C198.428 49.8288 198.356 49.9847 198.347 50.1503H198.343V51.7975C196.593 49.6398 193.834 48.7441 191.067 48.7441C184.778 48.7441 179.68 53.847 179.68 60.1411C179.68 66.436 184.778 71.538 191.067 71.538C193.834 71.538 196.85 70.4648 198.343 68.4862V68.4895ZM191.078 67.5498C187.078 67.5498 183.836 64.2334 183.836 60.1411C183.836 56.0503 187.078 52.7339 191.078 52.7339C195.079 52.7339 198.32 56.0503 198.32 60.1411C198.32 64.2334 195.078 67.5498 191.078 67.5498Z" fill="#0D0E10"/>
<path d="M176.068 58.6985C176.068 52.7855 172.341 48.7965 166.397 48.7965C163.559 48.7965 161.233 50.438 160.411 51.8491C160.234 50.7458 159.648 49.5863 157.834 49.5863H156.909C156.551 49.5863 156.259 49.8794 156.259 50.2377V70.5115H156.263C156.282 70.8527 156.564 71.1263 156.909 71.1263H159.766C159.809 71.1253 159.851 71.1209 159.894 71.1132L159.929 71.1035L159.949 71.0969L159.968 71.0912L160.012 71.0774C160.032 71.0684 160.05 71.0586 160.069 71.0481L160.084 71.0391L160.1 71.031L160.111 71.0245L160.119 71.0196C160.147 71.0001 160.174 70.9789 160.199 70.9561L160.213 70.9455C160.241 70.9176 160.267 70.8876 160.29 70.8559C160.363 70.7551 160.405 70.6356 160.412 70.5115H160.415V58.5356C160.415 57.7807 160.564 57.0332 160.852 56.3356C161.141 55.6381 161.564 55.0043 162.098 54.4703C162.632 53.9364 163.265 53.5128 163.963 53.2237C164.66 52.9346 165.407 52.7857 166.162 52.7855C167.687 52.7861 169.149 53.3923 170.226 54.4706C171.304 55.549 171.909 57.0112 171.909 58.5356L171.912 68.5459V68.5427L171.913 68.5557L171.913 68.5703V70.5115H171.917C171.927 70.677 171.999 70.8327 172.119 70.9469C172.239 71.0611 172.398 71.1253 172.564 71.1263H175.42C175.463 71.1253 175.506 71.1209 175.548 71.1132L175.597 71.0986L175.613 71.0945L175.667 71.0774L175.674 71.0741L175.695 71.0636L175.718 71.0505L175.734 71.0416L175.74 71.0375L175.749 71.0334L175.775 71.0196C175.8 71.0015 175.825 70.9819 175.849 70.961L175.852 70.9577L175.862 70.9496L175.867 70.9455C175.894 70.9192 175.918 70.8912 175.941 70.8616L175.942 70.8592L175.943 70.8576L175.946 70.8551C176.017 70.7548 176.059 70.6362 176.066 70.5131L176.067 70.5115H176.07L176.068 58.6985Z" fill="#0D0E10"/>
<path fill-rule="evenodd" clip-rule="evenodd" d="M148.901 71.0743C147.326 71.0743 146.417 69.6274 146.316 68.4907V68.4883C144.822 70.4661 141.807 71.5401 139.04 71.5401C132.751 71.5401 127.652 66.4372 127.652 60.1423C127.652 53.8474 132.751 48.7462 139.04 48.7462C141.807 48.7462 144.566 49.6419 146.316 51.7988V50.1516H146.32C146.329 49.986 146.401 49.83 146.521 49.7157C146.641 49.6013 146.8 49.537 146.966 49.536H149.822C150.168 49.536 150.45 49.8096 150.469 50.1516H150.472V70.4237C150.472 70.5962 150.404 70.7617 150.282 70.8838C150.16 71.0059 149.995 71.0747 149.822 71.0751L148.901 71.0743ZM131.809 60.1423C131.809 64.2347 135.051 67.5511 139.051 67.5511C143.051 67.5511 146.294 64.2347 146.294 60.1423C146.294 56.0516 143.051 52.7352 139.051 52.7352C135.051 52.7352 131.809 56.0516 131.809 60.1423Z" fill="#0D0E10"/>
<path fill-rule="evenodd" clip-rule="evenodd" d="M65.1533 60.9187C64.1469 60.9185 63.1503 61.1165 62.2205 61.5016C61.2906 61.8866 60.4457 62.451 59.7341 63.1626C59.0224 63.8742 58.4579 64.719 58.0728 65.6488C57.6877 66.5786 57.4895 67.5751 57.4896 68.5815C57.4894 69.588 57.6875 70.5846 58.0726 71.5145C58.4576 72.4444 59.0221 73.2893 59.7338 74.001C60.4455 74.7127 61.2904 75.2772 62.2203 75.6622C63.1502 76.0473 64.1468 76.2454 65.1533 76.2452C66.1597 76.2454 67.1563 76.0473 68.0861 75.6623C69.0159 75.2773 69.8608 74.7129 70.5725 74.0013C71.2842 73.2897 71.8487 72.4449 72.2338 71.5151C72.6189 70.5853 72.817 69.5887 72.8169 68.5823C72.8171 67.5759 72.6191 66.5792 72.234 65.6493C71.8489 64.7195 71.2845 63.8745 70.5728 63.1629C69.8611 62.4512 69.0162 61.8867 68.0863 61.5016C67.1564 61.1166 66.1597 60.9185 65.1533 60.9187ZM45.2426 60.9187C44.2296 60.9083 43.2246 61.0988 42.2857 61.4792C41.3468 61.8596 40.4926 62.4224 39.7726 63.1351C39.0526 63.8477 38.481 64.696 38.0909 65.631C37.7009 66.5659 37.5 67.5689 37.5 68.5819C37.5 69.595 37.7009 70.598 38.0909 71.5329C38.481 72.4679 39.0526 73.3162 39.7726 74.0288C40.4926 74.7414 41.3468 75.3042 42.2857 75.6847C43.2246 76.0651 44.2296 76.2556 45.2426 76.2452C46.2556 76.2556 47.2606 76.0651 48.1996 75.6847C49.1385 75.3042 49.9926 74.7414 50.7126 74.0288C51.4327 73.3162 52.0042 72.4679 52.3943 71.5329C52.7844 70.598 52.9853 69.595 52.9853 68.5819C52.9853 67.5689 52.7844 66.5659 52.3943 65.631C52.0042 64.696 51.4327 63.8477 50.7126 63.1351C49.9926 62.4224 49.1385 61.8596 48.1996 61.4792C47.2606 61.0988 46.2556 60.9083 45.2426 60.9187ZM62.8612 51.3392C62.8716 52.3522 62.6811 53.3572 62.3007 54.2961C61.9203 55.235 61.3575 56.0891 60.6448 56.8092C59.9322 57.5292 59.0839 58.1008 58.1489 58.4908C57.214 58.8809 56.211 59.0818 55.198 59.0818C54.1849 59.0818 53.1819 58.8809 52.247 58.4908C51.312 58.1008 50.4637 57.5292 49.7511 56.8092C49.0385 56.0891 48.4756 55.235 48.0952 54.2961C47.7148 53.3572 47.5243 52.3522 47.5347 51.3392C47.5555 49.3204 48.3721 47.3914 49.8069 45.9713C51.2418 44.5511 53.1791 43.7545 55.198 43.7545C57.2168 43.7545 59.1541 44.5511 60.589 45.9713C62.0238 47.3914 62.8404 49.3204 62.8612 51.3392Z" fill="#F06A6A"/>
</svg>
