<svg width="240" height="120" viewBox="0 0 240 120" fill="none" xmlns="http://www.w3.org/2000/svg">
<path d="M74.2247 72.2558L86.1834 48.6619C86.465 48.1706 86.5728 47.889 86.8184 47.889H86.9263C87.2079 47.889 87.2798 48.1706 87.5614 48.6619L99.5201 72.2618C99.7298 72.6452 99.4841 73.0346 99.0288 73.0346H95.5838C95.0565 73.0346 94.8828 72.8609 94.5652 72.2618L92.3485 67.6544H81.4442L79.2274 72.2618C78.9099 72.8609 78.7361 73.0346 78.2089 73.0346H74.7279C74.2606 73.0286 74.0509 72.6452 74.2247 72.2558ZM90.8207 63.814L86.9203 55.516H86.8484L82.948 63.814H90.8207ZM93.8882 47.883C94.4514 47.883 94.6971 48.0568 94.9068 48.6439L101.965 63.4245L108.046 48.608C108.082 48.5061 108.118 48.3983 108.154 48.3324C108.291 48.0208 108.399 47.883 108.609 47.883H109.172C109.382 47.883 109.49 48.0208 109.627 48.3324C109.699 48.4043 109.735 48.5061 109.765 48.608L115.811 63.4245L122.928 48.6439C123.138 48.0568 123.384 47.883 123.947 47.883H127.572C128.135 47.883 128.207 48.0568 127.961 48.6439L116.2 72.2677C115.99 72.783 115.882 73.0286 115.637 73.0286H115.319C115.11 73.0286 114.966 72.789 114.756 72.2677L108.885 57.8047L103.013 72.2677C102.803 72.753 102.695 73.0286 102.45 73.0286H102.132C101.923 73.0286 101.815 72.789 101.569 72.2677L89.91 48.6439C89.6284 48.0568 89.7003 47.883 90.2635 47.883H93.8882ZM132.814 54.3537C138.614 54.3537 141.573 58.9969 141.573 64.2334C141.573 64.8684 141.465 65.0781 140.836 65.0781L127.967 65.0422C128.494 68.0678 130.849 69.4039 133.102 69.4039C134.3 69.4039 135.947 69.1582 137.817 68.1397C138.134 68.0019 138.308 67.8581 138.488 67.8581C138.626 67.8581 138.769 67.966 138.943 68.1757L140.034 69.5117C140.387 69.9671 140.459 70.2127 140.141 70.5303C138.488 72.1479 135.606 73.0286 133 73.0286C127.691 73.0286 123.539 68.8407 123.539 63.7121C123.539 58.5835 127.679 54.3537 132.814 54.3537ZM137.248 62.1304C136.966 59.9496 135.558 57.8047 132.748 57.8047C130.322 57.8047 128.56 59.7039 128.033 62.1304H137.248ZM147.738 57.4512C148.23 56.5704 150.201 54.3537 153.508 54.3537C158.253 54.3537 161.596 58.5716 161.596 63.7061C161.596 68.6969 158.253 73.0227 153.508 73.0227C150.201 73.0227 148.266 71.2672 147.001 69.7514L146.474 71.8603C146.157 72.3876 146.019 72.6332 145.558 72.6332H144.257C143.658 72.6332 143.485 72.4595 143.485 71.8603L143.544 45.798C143.544 45.1989 143.718 45.0251 144.317 45.0251H147.025C147.625 45.0251 147.798 45.1989 147.798 45.798L147.738 57.4512ZM157.372 63.7121C157.372 60.6146 155.335 58.1582 152.555 58.1582C149.739 58.1582 147.702 60.6925 147.702 63.7121C147.702 66.7377 149.739 69.302 152.555 69.302C155.335 69.302 157.372 66.8755 157.372 63.7121ZM172.578 54.3537C178.378 54.3537 181.338 58.9969 181.338 64.2334C181.338 64.8684 181.23 65.0781 180.601 65.0781L167.731 65.0422C168.259 68.0678 170.613 69.4039 172.866 69.4039C174.064 69.4039 175.712 69.1582 177.581 68.1397C177.899 68.0019 178.072 67.8581 178.252 67.8581C178.39 67.8581 178.534 67.966 178.708 68.1757L179.798 69.5117C180.151 69.9671 180.217 70.2127 179.906 70.5303C178.252 72.1479 175.37 73.0286 172.764 73.0286C167.456 73.0286 163.304 68.8407 163.304 63.7121C163.304 58.5835 167.444 54.3537 172.578 54.3537ZM177.012 62.1304C176.73 59.9496 175.322 57.8047 172.513 57.8047C170.086 57.8047 168.325 59.7039 167.797 62.1304H177.012ZM187.395 64.2753V72.2558C187.395 72.8549 187.221 73.0286 186.622 73.0286H183.914C183.315 73.0286 183.141 72.8549 183.141 72.2558V55.9054C183.141 55.3063 183.315 55.1325 183.914 55.1325H185.25C185.705 55.1325 185.885 55.3422 186.167 55.9054L186.976 58.5057C187.994 56.7142 190.552 54.7431 194.776 54.7431C195.477 54.7431 195.549 54.9528 195.477 55.4441L195.058 58.1881C194.95 58.7872 194.776 58.925 194.213 58.925C190.235 58.931 187.395 61.4594 187.395 64.2753Z" fill="#333333"/>
<path d="M61.0624 46.3479C60.377 46.3479 59.7264 46.6529 59.3106 47.1861C56.3401 50.9822 54.5475 55.4703 53.7326 59.9291C53.0239 63.8312 53.3582 68.7932 54.6823 73.3634C54.9579 74.3125 55.4318 74.9751 59.1818 74.9751C69.2945 74.9751 73.7886 71.0316 73.7886 60.6498C73.794 50.5904 69.5048 46.3485 61.063 46.3485M60.7934 73.6864C60.4998 73.8351 60.1597 73.8633 59.8456 73.7648C59.5315 73.6663 59.2684 73.4489 59.1123 73.1591C59.1063 73.1471 59.1063 73.1412 59.1003 73.1292C57.0674 69.263 56.3874 64.8743 57.1789 60.5156C57.9697 56.1503 60.1608 52.2542 63.4416 49.3016L63.4656 49.2777C63.9808 48.8271 64.7717 48.8679 65.2288 49.3717C65.3384 49.4898 65.4231 49.6289 65.4776 49.7805C65.5321 49.9322 65.5555 50.0933 65.5462 50.2542C65.5369 50.4151 65.4952 50.5724 65.4236 50.7168C65.3519 50.8611 65.2519 50.9895 65.1294 51.0942C65.1234 51.1002 65.1174 51.1062 65.1054 51.1122C62.3284 53.6256 60.3423 57.0119 59.6275 60.9374C58.9187 64.8509 59.5922 68.6884 61.3033 71.9812L61.2973 71.9872C61.3093 72.0052 61.3213 72.0226 61.3273 72.0399C61.403 72.1825 61.4494 72.3389 61.4635 72.4997C61.4776 72.6605 61.4593 72.8225 61.4095 72.9761C61.3598 73.1297 61.2797 73.2718 61.1739 73.3938C61.0682 73.5158 60.9384 73.6153 60.7934 73.6864ZM68.3988 55.3708C68.3869 55.3828 68.3695 55.3888 68.3521 55.4008C66.3192 57.0065 64.8484 59.2089 64.3385 61.7756C63.8233 64.3531 64.3565 66.8784 65.6566 69.0167L65.6452 69.0227C65.6572 69.0407 65.6692 69.0521 65.6806 69.0694C65.8915 69.4385 65.7333 69.8897 65.3175 70.0772C64.9011 70.2647 64.3972 70.1239 64.1809 69.7548L64.163 69.7195C62.6867 67.2942 62.0888 64.4351 62.6693 61.5174C63.2493 58.6056 64.9191 56.1036 67.2389 54.2816C67.2569 54.2696 67.2683 54.2523 67.2856 54.2403C67.6373 53.9707 68.1766 54.0006 68.4809 54.317C68.7919 54.6213 68.7505 55.0952 68.3988 55.3708ZM48.9995 71.5654C49.0989 72.0687 48.4782 72.415 48.0912 72.0633C45.8828 70.0652 44.5 67.5285 44.5 60.6558C44.5 51.821 47.9684 48.0476 52.6902 46.7643C53.1593 46.6355 53.5463 47.1394 53.3001 47.5492C51.147 51.099 49.6616 55.0129 48.9174 59.0975C48.1684 63.2223 48.1962 67.4508 48.9995 71.5654Z" fill="url(#paint0_linear_2260_470)"/>
<defs>
<linearGradient id="paint0_linear_2260_470" x1="120.015" y1="45.025" x2="120.015" y2="74.9787" gradientUnits="userSpaceOnUse">
<stop stop-color="#246BE8"/>
<stop offset="1" stop-color="#3293F2"/>
</linearGradient>
</defs>
</svg>
