<svg width="40" height="40" viewBox="0 0 40 40" fill="none" xmlns="http://www.w3.org/2000/svg">
<path d="M36.9998 17.8253C36.7967 18.4362 36.6663 19.0875 36.3754 19.65C35.6995 20.9608 34.6049 21.7559 33.1999 22.0683C32.9356 22.1269 32.8416 22.2121 32.8443 22.5052C32.8593 24.2191 32.8567 25.933 32.8496 27.6468C32.8452 28.7094 32.242 29.4569 31.2885 29.4981C30.9355 29.5137 30.5381 29.3909 30.2232 29.2151C27.9046 27.9171 25.5018 26.8288 22.9863 26.0099C20.4912 25.1974 17.942 24.6505 15.3405 24.3675C15.3201 24.3656 15.2988 24.3766 15.2491 24.3876C15.2917 24.526 15.328 24.6634 15.3751 24.7971C16.3942 27.7027 17.4151 30.6083 18.4352 33.5149C18.9159 34.8843 18.1673 35.9964 16.7623 35.9982C15.5782 36 14.3949 36 13.2108 35.9982C12.3575 35.9964 11.7934 35.5887 11.5007 34.7542C10.2837 31.2917 9.06768 27.8282 7.85606 24.3629C7.77357 24.1284 7.66358 23.9617 7.44095 23.8289C6.81917 23.4579 6.42801 22.8899 6.25948 22.1644C6.2444 22.0976 6.22933 22.0307 6.21159 21.9657C6.20538 21.9446 6.19118 21.9263 6.1628 21.8741C5.81776 21.8741 5.4541 21.8814 5.09221 21.8722C3.94622 21.8438 3.02375 20.9086 3.01311 19.7278C2.99714 18.0827 2.99803 16.4366 3.01311 14.7914C3.02375 13.6766 3.86107 12.7642 4.93521 12.669C5.27581 12.6387 5.62085 12.6433 5.96323 12.6479C6.1353 12.6497 6.21247 12.5957 6.25771 12.4134C6.58323 11.0879 7.52255 10.3249 8.84949 10.3084C10.0443 10.2937 11.2399 10.2708 12.4338 10.2937C14.7825 10.3395 17.0869 9.98869 19.3736 9.49312C23.185 8.66687 26.7879 7.25528 30.1948 5.30874C30.6037 5.07515 31.0233 4.9295 31.4952 5.03485C32.352 5.22538 32.8487 5.89316 32.8531 6.88246C32.8593 8.42504 32.8549 9.96762 32.8549 11.5102C32.8549 11.7273 32.8327 11.9481 32.8656 12.1597C32.8797 12.2549 32.9906 12.3878 33.0784 12.4097C35.2409 12.9383 36.5448 14.3105 36.9546 16.5749C36.9599 16.6051 36.9865 16.6317 37.0033 16.6601V17.8262L36.9998 17.8253ZM14.9023 11.9087V22.6142C20.6917 23.1767 26.1049 24.9134 31.1874 27.841V6.68094C26.089 9.61587 20.673 11.3508 14.9023 11.9087ZM13.2179 12.0094C11.6825 12.0094 10.1809 11.9929 8.68007 12.0186C8.15675 12.0278 7.84098 12.4574 7.84009 13.0537C7.83655 15.8622 7.83655 18.6707 7.84009 21.4783C7.84009 22.1351 8.19312 22.5043 8.81933 22.508C10.2013 22.5162 11.5832 22.5153 12.9642 22.5153C13.0467 22.5153 13.1292 22.4933 13.2179 22.4814V12.0094ZM16.9645 34.2972C15.7733 30.9033 14.5998 27.5616 13.429 24.2255H9.56174C9.60786 24.3666 9.64334 24.4829 9.68325 24.5974C10.1374 25.8945 10.5915 27.1916 11.0457 28.4887C11.6878 30.3216 12.3283 32.1555 12.9811 33.9839C13.0245 34.1066 13.162 34.2816 13.2578 34.2834C14.473 34.3036 15.6882 34.2972 16.9645 34.2972ZM32.8673 20.3828C34.3424 20.2032 35.4644 18.6185 35.3402 16.9349C35.24 15.5755 33.9628 14.1364 32.8673 14.1657V20.3828ZM6.16635 20.1785V14.3398C5.81067 14.3398 5.47982 14.3261 5.14986 14.3435C4.83498 14.3599 4.66823 14.5468 4.65758 14.8711C4.64783 15.1908 4.65492 15.5105 4.65492 15.8302C4.65492 17.0741 4.65315 18.3181 4.65581 19.562C4.6567 20.0017 4.81192 20.1666 5.22792 20.1767C5.5357 20.184 5.8426 20.1785 6.16546 20.1785H6.16635Z" fill="#F87E1B"/>
</svg>
